<svg xmlns="http://www.w3.org/2000/svg" xmlns:xlink="http://www.w3.org/1999/xlink" xmlns:lucid="lucid" width="760.75" height="2140"><g transform="translate(-388.25 260)" lucid:page-tab-id="_OjUQzVtU6I_"><path d="M0-500h1500v2500H0z" fill="#fff"/><path d="M391 757.96a2 2 0 0 1 2-2h754a2 2 0 0 1 2 2V1078a2 2 0 0 1-2 2H393a2 2 0 0 1-2-2z" fill="#e3f2fd"/><use xlink:href="#a" transform="matrix(1,0,0,1,407,771.9584983328349) translate(0 15.530273437500002)"/><use xlink:href="#b" transform="matrix(1,0,0,1,407,771.9584983328349) translate(81.48489257812501 15.530273437500002)"/><use xlink:href="#c" transform="matrix(1,0,0,1,407,771.9584983328349) translate(101.10208007812501 15.530273437500002)"/><use xlink:href="#d" transform="matrix(1,0,0,1,407,771.9584983328349) translate(175.5084375 15.530273437500002)"/><use xlink:href="#e" transform="matrix(1,0,0,1,407,771.9584983328349) translate(218.00416992187502 15.530273437500002)"/><path d="M648 368a8 8 0 0 1 8-8h224a8 8 0 0 1 8 8v44a8 8 0 0 1-8 8H656a8 8 0 0 1-8-8z" fill="none"/><use xlink:href="#f" transform="matrix(1,0,0,1,648,360) translate(34.27734375 39.114583333333336)"/><use xlink:href="#g" transform="matrix(1,0,0,1,648,360) translate(109.34244791666667 39.114583333333336)"/><path d="M737 1700h91v120h-91z" fill-opacity="0"/><path d="M782.5 1732.7c-25.12 0-45.5-7.05-45.5-16.38v87.3c0 8.92 20.02 16.28 44.86 16.38h.64c25.12 0 45.5-7.05 45.5-16.38v-87.3c0 9.02-20.38 16.38-45.5 16.38z" fill="url(#h)"/><path d="M828 1716.38c0 9.04-20.38 16.38-45.5 16.38s-45.5-7.08-45.5-16.38c0-9.3 20.38-16.38 45.5-16.38s45.5 7.08 45.5 16.38" fill="#e8e8e8"/><path d="M817.35 1715.05c0 5.8-15.63 10.5-34.83 10.5-19.26 0-34.96-4.7-34.96-10.4 0-5.75 15.63-10.5 34.96-10.5 19.27 0 34.83 4.68 34.83 10.4" fill="#50e6ff"/><path d="M782.55 1717.7c-9.9-.26-18.3.96-27.7 4 9.4 3 17.8 4.15 27.7 3.82 9.85.23 18.26-1 27.6-4.1-9.4-2.9-17.75-4.03-27.6-3.73z" fill="#198ab3"/><path d="M803.8 1760.1v2.94c-.3 1.54-.5 2.88-.55 4.42 0 .84 0 2.12.37 3.27.3 1.15 0 1.92 0 2.56-.07 2.24-.62 4.16-1.78 6.02-.07.2-.07.32 0 .5l.67.84c3.38-5.5 5.65-10.57 7.55-16.8 1.97-6.7 2.2-11.52.62-13.57-4.66-5.7-11.84-8.02-19-6.03 2.56 1.2 4.52 2.7 6.43 4.67 3.5 2.95 5.4 6.67 5.7 11.15zm-2.2.5c-1.97-.44-3.8-.25-5.6.65-2.08 1.28-1.4 3.9 0 7.05.75 2.17 1.48 3.97 2.46 6.02l.68 1.15c.3.58.55 1.03.73 1.4l.62.9c.85-1.46 1.2-2.88 1.2-4.54.07-.83.07-1.54 0-2.37 0-1.22 0-2.56-.3-3.46.07-1.73.25-3.14.56-4.87-.25-.77-.12-1.54-.06-2.12zm-2.16 2.95c-.36.32-.73.58-1.22.7-.37.07-.68.07-1.05 0-.36-.38-.55-.83-.5-1.34 0-.5.8-.95 1.73-1.08h1.35s.68 0 .68.58c-.13.38-.3.7-.68.9zm-33.24 6.28v-1.22c.06-.43.06-.75 0-1.2-.24-2.44-.24-4.55 0-7.05.43-2.82 1.1-5.13 2.15-7.75.86-2.63 2.14-4.68 4.1-6.67-3.3-.96-6.2-1.4-9.56-1.4-2.9-.14-5.4.57-7.86 2.1-3.68 3.34-5.28 7.95-4.42 12.9.68 5.63 1.78 10.37 3.5 15.8 2.45 8.02 5.2 12.96 7.6 13.8 1.1.3 2.2 0 3.38-1.55 1.96-2.37 3.8-4.42 4.84-5.64-3.3-3.33-4.54-7.75-3.43-12.36zm1.84 2.82c0 1.4.12 2.57.43 3.9.43 1.23 1.04 2.2 1.84 3.15.75.77 1.54 1.35 2.53 1.8.9.32 1.7.5 2.75.5 0-1.14 1-2.68 1.6-4.22.68-1.4 1.1-2.63 1.53-4.17.2-2.74.2-5.05 0-7.8 0-.64 0-1.35-.42-2.12-.06-.77-.36-1.4-.86-1.92-.6-.58-1.22-.9-2.02-1.15H774c-1.24.2-2.28.45-3.38 1.03-.86.38-1.54.77-2.27 1.35v8.9zm4.66-9.48c.68-.2 1.35-.2 2.03 0 .5.06.92.2 1.35.45.6 0 .67.77.6.96-.17.38-.48.7-.85.9-.12-.07-.25-.13-.43-.26-1.04-.2-1.78-.96-1.96-2zm5.28 21.2c-.37 0-.68.14-.92.4l-.98 1.2c-1.23 1.48-1.72 2-5.22 2.7-.67.07-1.22.26-1.84.7.56.4 1.05.65 1.72.78 1.72.57 3.37.57 5.1 0 1.1-.52 1.9-1.03 2.75-1.86.73-.6 1.22-1.3 1.46-2.2.06-.76-.18-1.4-.73-1.98-.3-.2-.68-.25-1.05-.13zm32.7 0c-2.7.97-5.3.97-7.98 0-.37-.12-.68-.12-1.05 0-.5.14-.92.46-1.16.97-.14.77-.14 1.4 0 2.18 2.7.64 5.2.38 7.78-.7 1.35-.58 2.4-1.3 3.37-2.38zm-17-15.1c-1.04-2.9-2.45-7.06 1.23-9.63 2.03-1.1 4.12-1.47 6.32-1.1v.02c-.98-3.14-2.33-5.64-4.54-8.08l-.67-.7-.42-.45c-.12-.2-.25-.32-.43-.45-1.47-1.28-2.94-2.18-4.78-2.95-2.58-1.15-5.03-1.6-7.85-1.54-1.78-.13-3.32.06-4.97.76-.74.2-1.4.45-2.15.77-2.5 1.86-4.17 4.1-5.2 7.05-.75 2.43-1.24 4.55-1.48 7.1 2.2-1.33 4.47-1.85 7.05-1.65 3.3.25 5.76 3.14 5.46 6.4.3 3.2.3 5.84 0 8.98-.43 1.67-.92 2.95-1.6 4.5-.43 1.2-1.04 2.43-1.28 3.45 1.04-.06 1.96.26 2.7.96.98 1.04 1.47 2.32 1.34 3.8h.12v1.66c-.56 6.1-.06 11.34 1.7 17.24.44.7 1 1.15 1.73 1.47.67.45 1.35.7 2.15.7 2.7.26 5.15-.57 7.1-2.37 1.3-1.34 1.97-2.82 2.1-4.67.5-3.14 1.53-12 1.65-14.1-.12-1.15.13-2.12.68-3.14.5-.78 1.1-1.3 1.9-1.68-3.5-3.9-5.83-7.8-7.6-12.8z" fill="#f2f2f2"/><path d="M662.5 1828a8 8 0 0 1 8-8h224a8 8 0 0 1 8 8v44a8 8 0 0 1-8 8h-224a8 8 0 0 1-8-8z" fill="none"/><use xlink:href="#i" transform="matrix(1,0,0,1,662.5,1820) translate(63.72395833333333 39.114583333333336)"/><path d="M804.92 420L860 476.14l-55.08 56.25-18.54-18.8-18.54 18.9-16.38-16.76-16.38 16.65L680 476.13 735.08 420l16.56 16.76-5.76 5.85-10.8-10.9-43.56 44.44 43.56 44.44 10.62-10.7-32.94-33.52 55.08-56.25 18.54 18.8 18.54-18.9zm-37.08 11.93l-43.56 44.43 43.56 44.44 12.78-13.05-30.96-31.6 30.78-31.4-12.6-12.82z" stroke="#000" stroke-opacity="0" fill="#4285f4"/><path d="M808.8 46.88V29.84h-5.4v11.64h-9.24v5.4h14.64zm-2.64-21.48c9 0 16.44 7.32 16.44 16.44 0 9-7.44 16.32-16.44 16.32-9.12 0-16.44-7.32-16.44-16.32 0-9.12 7.32-16.44 16.44-16.44zm0 38.16c12 0 21.84-9.72 21.84-21.72 0-12-9.84-21.84-21.84-21.84-12.12 0-21.84 9.84-21.84 21.84s9.72 21.72 21.84 21.72zM815.4 125h-18.48V71.96c5.88 1.8 12.48 1.8 18.48 0V125zm1.56-59.4c-6.84 3-14.88 3-21.72 0-.84-.36-1.8-.36-2.52.24-.84.48-1.32 1.32-1.32 2.28v59.64c0 1.44 1.32 2.64 2.76 2.64h23.88c1.56 0 2.76-1.2 2.76-2.64V68.12c0-.96-.48-1.8-1.2-2.28-.84-.6-1.8-.6-2.64-.24zM708 140h119.64v-5.4H708v5.4zm50.64-15V89.84h18.48V125h-18.48zm-2.76 5.4h23.88c1.56 0 2.76-1.2 2.76-2.64V87.2c0-1.56-1.2-2.76-2.76-2.76h-23.88c-1.56 0-2.76 1.2-2.76 2.76v40.56c0 1.44 1.2 2.64 2.76 2.64zm-35.64-5.4V77.96h18.6V125h-18.6zm-2.64 5.4h23.88c1.56 0 2.76-1.2 2.76-2.64V75.2c0-1.44-1.2-2.64-2.76-2.64H717.6c-1.56 0-2.76 1.2-2.76 2.64v52.56c0 1.44 1.2 2.64 2.76 2.64z" stroke="#000" stroke-opacity="0" fill="#e7157b"/><path d="M648-32a8 8 0 0 1 8-8h224a8 8 0 0 1 8 8v44a8 8 0 0 1-8 8H656a8 8 0 0 1-8-8z" fill="none"/><use xlink:href="#f" transform="matrix(1,0,0,1,648,-40) translate(1.85546875 39.114583333333336)"/><use xlink:href="#j" transform="matrix(1,0,0,1,648,-40) translate(76.92057291666667 39.114583333333336)"/><use xlink:href="#k" transform="matrix(1,0,0,1,648,-40) translate(154.64192708333334 39.114583333333336)"/><path d="M767.84 533v9.26m0 9.26v18.53m0 9.26v18.54m0 9.26v18.52m0 9.27v9.29h.02l.02.02h.08v.02h.02v.02h.02V656.25m0 11.93v23.85m0 11.93V715.93h-.02l-.02.02h-.05l-.02.02h-.02v.02h-.02v13.18m0 13.14v13.14" stroke="#333" fill="none"/><path d="M767.84 532.5l.48-.48v1h-.96v-1zM768.32 755.96h-.96v-.5h.96z" stroke="#333" stroke-width=".05" fill="#333"/><path d="M575.4 936.6c-2.1-2.54-5.66-3.13-8.4-1.35l-58.75 44.16v1.85c3.34-.35 6.35 2.02 6.7 5.46.4 3.4-2 6.42-5.27 6.84-.47.06-.95.06-1.43 0 1.43 0 2.66-.4 3.75-1.25l62.18-47.02c2.53-2.14 3.07-5.88 1.23-8.67z" stroke="#000" stroke-opacity="0" fill="#669df6"/><path d="M508.18 993.6c-3.34-.42-5.66-3.5-5.32-6.9.34-2.84 2.52-5.03 5.32-5.4v-1.9l-58.7-44.1c-2.8-1.83-6.34-1.24-8.4 1.37-1.83 2.8-1.28 6.53 1.3 8.55l62.19 47c1.1.85 2.3 1.26 3.68 1.32z" stroke="#000" stroke-opacity="0" fill="#aecbfa"/><path d="M508.18 974.72c-6.82 0-12.35 5.66-12.35 12.64s5.53 12.64 12.35 12.64c6.82 0 12.35-5.66 12.35-12.64s-5.53-12.64-12.35-12.64zm0 18.73c-3.33 0-6.05-2.75-6.05-6.17 0-3.43 2.72-6.2 6.05-6.2 3.34 0 6.06 2.77 6.06 6.2v.08c0 3.36-2.67 6.12-5.98 6.12-.03 0-.05 0-.08-.03z" stroke="#000" stroke-opacity="0" fill="#4285f4"/><path d="M457.86 869.76c-3.47-.06-6.25-2.9-6.3-6.43v-16.07c-.4-3.57 2.1-6.8 5.6-7.23 3.5-.4 6.68 2.17 7.08 5.74.06.5.06.96 0 1.5v16.06c-.05 3.57-2.9 6.43-6.38 6.43zM464.08 920.44c0 3.6-2.86 6.52-6.38 6.52s-6.38-2.92-6.38-6.52c0-3.6 2.86-6.52 6.38-6.52s6.38 2.92 6.38 6.52zM464.08 901.4c0 3.6-2.86 6.52-6.38 6.52s-6.38-2.92-6.38-6.52c0-3.6 2.86-6.52 6.38-6.52s6.38 2.92 6.38 6.52zM464.08 882.36c0 3.6-2.86 6.52-6.38 6.52s-6.38-2.92-6.38-6.52c0-3.6 2.86-6.52 6.38-6.52s6.38 2.92 6.38 6.52z" stroke="#000" stroke-opacity="0" fill="#aecbfa"/><path d="M558.63 888.8c-3.48-.06-6.3-2.94-6.3-6.52v-16.16c0-3.56 2.83-6.44 6.3-6.44 3.48 0 6.3 2.88 6.3 6.44v16.16c.05 3.55-2.74 6.46-6.2 6.52h-.1zM565.1 920.44c0 3.6-2.86 6.52-6.38 6.52s-6.38-2.92-6.38-6.52c0-3.6 2.86-6.52 6.38-6.52s6.38 2.92 6.38 6.52zM565.1 901.08c0 3.6-2.86 6.52-6.38 6.52s-6.38-2.92-6.38-6.52c0-3.6 2.86-6.52 6.38-6.52s6.38 2.92 6.38 6.52zM565.1 847.27c0 3.6-2.86 6.52-6.38 6.52s-6.38-2.93-6.38-6.53 2.86-6.52 6.38-6.52 6.38 2.92 6.38 6.52z" stroke="#000" stroke-opacity="0" fill="#4285f4"/><path d="M508.27 946.08c-3.47-.06-6.25-2.9-6.3-6.44v-16.4c.4-3.6 3.56-6.17 7.08-5.74 2.98.34 5.26 2.66 5.6 5.73v16.23c.05 3.6-2.77 6.56-6.3 6.62h-.08zM514.6 958.52c0 3.6-2.86 6.52-6.38 6.52-3.53 0-6.4-2.92-6.4-6.52 0-3.6 2.87-6.52 6.4-6.52 3.52 0 6.38 2.92 6.38 6.52zM514.6 904.44c0 3.6-2.86 6.52-6.38 6.52-3.53 0-6.4-2.92-6.4-6.52 0-3.6 2.87-6.52 6.4-6.52 3.52 0 6.38 2.92 6.38 6.52zM514.6 885.4c0 3.6-2.86 6.52-6.38 6.52-3.53 0-6.4-2.92-6.4-6.52 0-3.6 2.87-6.52 6.4-6.52 3.52 0 6.38 2.92 6.38 6.52z" stroke="#000" stroke-opacity="0" fill="#669df6"/><path d="M533.43 907.84c-3.47-.06-6.25-2.9-6.3-6.43v-16.06c-.4-3.57 2.1-6.8 5.6-7.23 3.5-.38 6.67 2.18 7.08 5.75.06.5.06.96 0 1.5v16.06c-.04 3.58-2.9 6.44-6.37 6.44zM539.85 866.2c0 3.6-2.86 6.52-6.38 6.52s-6.38-2.92-6.38-6.52c0-3.6 2.85-6.52 6.37-6.52s6.38 2.92 6.38 6.52zM539.85 939.16c0 3.6-2.86 6.52-6.38 6.52s-6.38-2.92-6.38-6.52c0-3.6 2.85-6.52 6.37-6.52s6.38 2.92 6.38 6.52zM539.85 920.12c0 3.6-2.86 6.52-6.38 6.52s-6.38-2.92-6.38-6.52c0-3.6 2.85-6.52 6.37-6.52s6.38 2.92 6.38 6.52z" stroke="#000" stroke-opacity="0" fill="#4285f4"/><path d="M489.35 939.16c0 3.6-2.86 6.52-6.4 6.52-3.5 0-6.37-2.92-6.37-6.52 0-3.6 2.86-6.52 6.38-6.52 3.53 0 6.4 2.92 6.4 6.52zM489.35 885.4c0 3.6-2.86 6.52-6.4 6.52-3.5 0-6.37-2.92-6.37-6.52 0-3.6 2.86-6.52 6.38-6.52 3.53 0 6.4 2.92 6.4 6.52zM489.35 866.2c0 3.6-2.86 6.52-6.4 6.52-3.5 0-6.37-2.92-6.37-6.52 0-3.6 2.86-6.52 6.38-6.52 3.53 0 6.4 2.92 6.4 6.52zM483.1 926.56c-3.44 0-6.24-2.75-6.38-6.25v-16.27c0-3.56 2.82-6.43 6.3-6.43 3.47 0 6.28 2.87 6.28 6.43v16.27c-.08 3.45-2.8 6.2-6.2 6.26z" stroke="#000" stroke-opacity="0" fill="#aecbfa"/><path d="M440 840v160h136.5V840z" stroke="#000" stroke-opacity="0" fill-opacity="0"/><path d="M837.16 936.6c-2.12-2.54-5.67-3.13-8.4-1.35L770 979.4v1.85c3.34-.35 6.35 2.02 6.7 5.46.4 3.4-2 6.42-5.27 6.84-.47.06-.95.06-1.43 0 1.43 0 2.66-.4 3.75-1.25l62.18-47.02c2.53-2.14 3.07-5.88 1.23-8.67z" stroke="#000" stroke-opacity="0" fill="#669df6"/><path d="M769.93 993.6c-3.34-.42-5.66-3.5-5.32-6.9.35-2.84 2.53-5.03 5.33-5.4v-1.9l-58.7-44.1c-2.8-1.83-6.34-1.24-8.4 1.37-1.83 2.8-1.3 6.53 1.3 8.55l62.2 47c1.08.85 2.3 1.26 3.67 1.32z" stroke="#000" stroke-opacity="0" fill="#aecbfa"/><path d="M769.93 974.72c-6.82 0-12.35 5.66-12.35 12.64s5.53 12.64 12.35 12.64c6.82 0 12.36-5.66 12.36-12.64s-5.55-12.64-12.37-12.64zm0 18.73c-3.33 0-6.05-2.75-6.05-6.17 0-3.43 2.72-6.2 6.05-6.2 3.34 0 6.06 2.77 6.06 6.2v.08c0 3.36-2.68 6.12-6 6.12-.02 0-.04 0-.07-.03z" stroke="#000" stroke-opacity="0" fill="#4285f4"/><path d="M719.6 869.76c-3.46-.06-6.24-2.9-6.3-6.43v-16.07c-.4-3.57 2.12-6.8 5.62-7.23 3.5-.4 6.67 2.17 7.08 5.74.05.5.05.96 0 1.5v16.06c-.06 3.57-2.9 6.43-6.4 6.43zM725.83 920.44c0 3.6-2.86 6.52-6.38 6.52-3.53 0-6.38-2.92-6.38-6.52 0-3.6 2.85-6.52 6.38-6.52 3.52 0 6.38 2.92 6.38 6.52zM725.83 901.4c0 3.6-2.86 6.52-6.38 6.52-3.53 0-6.38-2.92-6.38-6.52 0-3.6 2.85-6.52 6.38-6.52 3.52 0 6.38 2.92 6.38 6.52zM725.83 882.36c0 3.6-2.86 6.52-6.38 6.52-3.53 0-6.38-2.92-6.38-6.52 0-3.6 2.85-6.52 6.38-6.52 3.52 0 6.38 2.92 6.38 6.52z" stroke="#000" stroke-opacity="0" fill="#aecbfa"/><path d="M820.38 888.8c-3.48-.06-6.3-2.94-6.3-6.52v-16.16c0-3.56 2.83-6.44 6.3-6.44 3.48 0 6.3 2.88 6.3 6.44v16.16c.05 3.55-2.74 6.46-6.2 6.52h-.1zM826.85 920.44c0 3.6-2.86 6.52-6.38 6.52s-6.38-2.92-6.38-6.52c0-3.6 2.85-6.52 6.37-6.52s6.38 2.92 6.38 6.52zM826.85 901.08c0 3.6-2.86 6.52-6.38 6.52s-6.38-2.92-6.38-6.52c0-3.6 2.85-6.52 6.37-6.52s6.38 2.92 6.38 6.52zM826.85 847.27c0 3.6-2.86 6.52-6.38 6.52s-6.38-2.93-6.38-6.53 2.85-6.52 6.37-6.52 6.38 2.92 6.38 6.52z" stroke="#000" stroke-opacity="0" fill="#4285f4"/><path d="M770.02 946.08c-3.47-.06-6.25-2.9-6.3-6.44v-16.4c.4-3.6 3.56-6.17 7.08-5.74 2.98.34 5.26 2.66 5.6 5.73v16.23c.05 3.6-2.77 6.56-6.3 6.62h-.08zM776.35 958.52c0 3.6-2.86 6.52-6.38 6.52-3.53 0-6.38-2.92-6.38-6.52 0-3.6 2.84-6.52 6.37-6.52 3.52 0 6.38 2.92 6.38 6.52zM776.35 904.44c0 3.6-2.86 6.52-6.38 6.52-3.53 0-6.38-2.92-6.38-6.52 0-3.6 2.84-6.52 6.37-6.52 3.52 0 6.38 2.92 6.38 6.52zM776.35 885.4c0 3.6-2.86 6.52-6.38 6.52-3.53 0-6.38-2.92-6.38-6.52 0-3.6 2.84-6.52 6.37-6.52 3.52 0 6.38 2.92 6.38 6.52z" stroke="#000" stroke-opacity="0" fill="#669df6"/><path d="M795.18 907.84c-3.47-.06-6.25-2.9-6.3-6.43v-16.06c-.4-3.57 2.1-6.8 5.6-7.23 3.5-.38 6.67 2.18 7.08 5.75.05.5.05.96 0 1.5v16.06c-.05 3.58-2.9 6.44-6.38 6.44zM801.6 866.2c0 3.6-2.86 6.52-6.38 6.52s-6.38-2.92-6.38-6.52c0-3.6 2.86-6.52 6.38-6.52s6.38 2.92 6.38 6.52zM801.6 939.16c0 3.6-2.86 6.52-6.38 6.52s-6.38-2.92-6.38-6.52c0-3.6 2.86-6.52 6.38-6.52s6.38 2.92 6.38 6.52zM801.6 920.12c0 3.6-2.86 6.52-6.38 6.52s-6.38-2.92-6.38-6.52c0-3.6 2.86-6.52 6.38-6.52s6.38 2.92 6.38 6.52z" stroke="#000" stroke-opacity="0" fill="#4285f4"/><path d="M751.1 939.16c0 3.6-2.86 6.52-6.4 6.52-3.5 0-6.37-2.92-6.37-6.52 0-3.6 2.86-6.52 6.38-6.52 3.54 0 6.4 2.92 6.4 6.52zM751.1 885.4c0 3.6-2.86 6.52-6.4 6.52-3.5 0-6.37-2.92-6.37-6.52 0-3.6 2.86-6.52 6.38-6.52 3.54 0 6.4 2.92 6.4 6.52zM751.1 866.2c0 3.6-2.86 6.52-6.4 6.52-3.5 0-6.37-2.92-6.37-6.52 0-3.6 2.86-6.52 6.38-6.52 3.54 0 6.4 2.92 6.4 6.52zM744.85 926.56c-3.44 0-6.24-2.75-6.38-6.25v-16.27c0-3.56 2.82-6.43 6.3-6.43 3.47 0 6.28 2.87 6.28 6.43v16.27c-.08 3.45-2.8 6.2-6.2 6.26z" stroke="#000" stroke-opacity="0" fill="#aecbfa"/><path d="M701.75 840v160h136.5V840z" stroke="#000" stroke-opacity="0" fill-opacity="0"/><path d="M1086.4 936.6c-2.1-2.54-5.66-3.13-8.4-1.35l-58.75 44.16v1.85c3.34-.35 6.35 2.02 6.7 5.46.4 3.4-2 6.42-5.27 6.84-.47.06-.95.06-1.43 0 1.43 0 2.66-.4 3.75-1.25l62.18-47.02c2.52-2.14 3.07-5.88 1.23-8.67z" stroke="#000" stroke-opacity="0" fill="#669df6"/><path d="M1019.18 993.6c-3.34-.42-5.66-3.5-5.32-6.9.34-2.84 2.52-5.03 5.32-5.4v-1.9l-58.7-44.1c-2.8-1.83-6.34-1.24-8.4 1.37-1.83 2.8-1.3 6.53 1.3 8.55l62.2 47c1.08.85 2.3 1.26 3.67 1.32z" stroke="#000" stroke-opacity="0" fill="#aecbfa"/><path d="M1019.18 974.72c-6.82 0-12.35 5.66-12.35 12.64s5.53 12.64 12.35 12.64c6.82 0 12.36-5.66 12.36-12.64s-5.54-12.64-12.36-12.64zm0 18.73c-3.33 0-6.05-2.75-6.05-6.17 0-3.43 2.72-6.2 6.05-6.2 3.34 0 6.05 2.77 6.05 6.2v.08c0 3.36-2.66 6.12-5.97 6.12-.03 0-.05 0-.08-.03z" stroke="#000" stroke-opacity="0" fill="#4285f4"/><path d="M968.86 869.76c-3.47-.06-6.25-2.9-6.3-6.43v-16.07c-.4-3.57 2.1-6.8 5.6-7.23 3.5-.4 6.68 2.17 7.1 5.74.04.5.04.96 0 1.5v16.06c-.07 3.57-2.9 6.43-6.4 6.43zM975.08 920.44c0 3.6-2.86 6.52-6.38 6.52-3.53 0-6.38-2.92-6.38-6.52 0-3.6 2.85-6.52 6.38-6.52 3.52 0 6.38 2.92 6.38 6.52zM975.08 901.4c0 3.6-2.86 6.52-6.38 6.52-3.53 0-6.38-2.92-6.38-6.52 0-3.6 2.85-6.52 6.38-6.52 3.52 0 6.38 2.92 6.38 6.52zM975.08 882.36c0 3.6-2.86 6.52-6.38 6.52-3.53 0-6.38-2.92-6.38-6.52 0-3.6 2.85-6.52 6.38-6.52 3.52 0 6.38 2.92 6.38 6.52z" stroke="#000" stroke-opacity="0" fill="#aecbfa"/><path d="M1069.63 888.8c-3.48-.06-6.3-2.94-6.3-6.52v-16.16c0-3.56 2.83-6.44 6.3-6.44 3.48 0 6.3 2.88 6.3 6.44v16.16c.04 3.55-2.74 6.46-6.2 6.52h-.1zM1076.1 920.44c0 3.6-2.86 6.52-6.38 6.52s-6.38-2.92-6.38-6.52c0-3.6 2.86-6.52 6.38-6.52s6.38 2.92 6.38 6.52zM1076.1 901.08c0 3.6-2.86 6.52-6.38 6.52s-6.38-2.92-6.38-6.52c0-3.6 2.86-6.52 6.38-6.52s6.38 2.92 6.38 6.52zM1076.1 847.27c0 3.6-2.86 6.52-6.38 6.52s-6.38-2.93-6.38-6.53 2.86-6.52 6.38-6.52 6.38 2.92 6.38 6.52z" stroke="#000" stroke-opacity="0" fill="#4285f4"/><path d="M1019.27 946.08c-3.47-.06-6.25-2.9-6.3-6.44v-16.4c.4-3.6 3.56-6.17 7.08-5.74 2.98.34 5.26 2.66 5.6 5.73v16.23c.05 3.6-2.78 6.56-6.3 6.62h-.08zM1025.6 958.52c0 3.6-2.86 6.52-6.38 6.52-3.53 0-6.38-2.92-6.38-6.52 0-3.6 2.85-6.52 6.38-6.52 3.52 0 6.38 2.92 6.38 6.52zM1025.6 904.44c0 3.6-2.86 6.52-6.38 6.52-3.53 0-6.38-2.92-6.38-6.52 0-3.6 2.85-6.52 6.38-6.52 3.52 0 6.38 2.92 6.38 6.52zM1025.6 885.4c0 3.6-2.86 6.52-6.38 6.52-3.53 0-6.38-2.92-6.38-6.52 0-3.6 2.85-6.52 6.38-6.52 3.52 0 6.38 2.92 6.38 6.52z" stroke="#000" stroke-opacity="0" fill="#669df6"/><path d="M1044.43 907.84c-3.47-.06-6.25-2.9-6.3-6.43v-16.06c-.4-3.57 2.1-6.8 5.6-7.23 3.5-.38 6.67 2.18 7.08 5.75.06.5.06.96 0 1.5v16.06c-.04 3.58-2.9 6.44-6.37 6.44zM1050.85 866.2c0 3.6-2.86 6.52-6.38 6.52s-6.38-2.92-6.38-6.52c0-3.6 2.85-6.52 6.37-6.52s6.38 2.92 6.38 6.52zM1050.85 939.16c0 3.6-2.86 6.52-6.38 6.52s-6.38-2.92-6.38-6.52c0-3.6 2.85-6.52 6.37-6.52s6.38 2.92 6.38 6.52zM1050.85 920.12c0 3.6-2.86 6.52-6.38 6.52s-6.38-2.92-6.38-6.52c0-3.6 2.85-6.52 6.37-6.52s6.38 2.92 6.38 6.52z" stroke="#000" stroke-opacity="0" fill="#4285f4"/><path d="M1000.35 939.16c0 3.6-2.86 6.52-6.4 6.52-3.5 0-6.37-2.92-6.37-6.52 0-3.6 2.86-6.52 6.38-6.52 3.53 0 6.38 2.92 6.38 6.52zM1000.35 885.4c0 3.6-2.86 6.52-6.4 6.52-3.5 0-6.37-2.92-6.37-6.52 0-3.6 2.86-6.52 6.38-6.52 3.53 0 6.38 2.92 6.38 6.52zM1000.35 866.2c0 3.6-2.86 6.52-6.4 6.52-3.5 0-6.37-2.92-6.37-6.52 0-3.6 2.86-6.52 6.38-6.52 3.53 0 6.38 2.92 6.38 6.52zM994.1 926.56c-3.44 0-6.24-2.75-6.38-6.25v-16.27c0-3.56 2.82-6.43 6.3-6.43 3.47 0 6.28 2.87 6.28 6.43v16.27c-.08 3.45-2.8 6.2-6.2 6.26z" stroke="#000" stroke-opacity="0" fill="#aecbfa"/><path d="M951 840v160h136.5V840z" stroke="#000" stroke-opacity="0" fill-opacity="0"/><path d="M388.25 1005.35a8 8 0 0 1 8-8h224a8 8 0 0 1 8 8v44a8 8 0 0 1-8 8h-224a8 8 0 0 1-8-8z" fill="none"/><use xlink:href="#l" transform="matrix(1,0,0,1,388.25,997.3535783462521) translate(80.08246527777777 25.65972222222222)"/><use xlink:href="#m" transform="matrix(1,0,0,1,388.25,997.3535783462521) translate(149.93489583333331 25.65972222222222)"/><use xlink:href="#n" transform="matrix(1,0,0,1,388.25,997.3535783462521) translate(86.09809027777777 46.49305555555556)"/><path d="M650 1005.35a8 8 0 0 1 8-8h224a8 8 0 0 1 8 8v44a8 8 0 0 1-8 8H658a8 8 0 0 1-8-8z" fill="none"/><use xlink:href="#l" transform="matrix(1,0,0,1,650,997.3535783462521) translate(80.08246527777777 25.65972222222222)"/><use xlink:href="#o" transform="matrix(1,0,0,1,650,997.3535783462521) translate(149.93489583333331 25.65972222222222)"/><use xlink:href="#p" transform="matrix(1,0,0,1,650,997.3535783462521) translate(98.07291666666666 46.49305555555556)"/><path d="M899.25 1008a8 8 0 0 1 8-8h224a8 8 0 0 1 8 8v44a8 8 0 0 1-8 8h-224a8 8 0 0 1-8-8z" fill="none"/><use xlink:href="#l" transform="matrix(1,0,0,1,899.25,1000) translate(80.08246527777777 25.65972222222222)"/><use xlink:href="#q" transform="matrix(1,0,0,1,899.25,1000) translate(149.93489583333331 25.65972222222222)"/><use xlink:href="#p" transform="matrix(1,0,0,1,899.25,1000) translate(98.07291666666666 46.49305555555556)"/><path d="M500 1080.5v13.14m0 13.14v13.18l.02.02h.02v.02h.07v.02h.02v.02l.02.02v9.87m0 9.84v19.7m0 9.84v19.7m0 9.85v19.7m0 9.84v19.68m0 9.85v19.7m0 9.83v19.7m0 9.84v19.7m0 9.84v19.7m0 9.84v19.7m0 9.84v19.7m0 9.83v9.85l.06.78.18.77.3.72.42.67.5.6.6.5.67.4.72.32.76.18.78.06h11.07m11.07 0h22.14m11.07 0h22.15m11.07 0h22.14m11.07 0H638" stroke="#333" fill="none"/><path d="M500.48 1080.5h-.96v-.5h.96zM638.5 1450.47h-.5v-.94h.5z" stroke="#333" stroke-width=".05" fill="#333"/><path d="M1020 1080.5v9.73m0 9.74v19.47m0 9.73v19.47m0 9.73v19.47m0 9.74v19.47m0 9.73v19.47m0 9.73v19.47m0 9.74v9.76l.02.02h.02v.02h.07v.02h.02v.02l.02.02v10.68m0 10.66v21.32m0 10.67v21.3m0 10.67v21.32m0 10.65v21.33m0 10.66V1445l-.06.78-.2.77-.28.72-.4.67-.52.6-.6.5-.67.4-.72.32-.76.18-.78.06h-9.5m-9.5 0H977.2m-9.5 0h-19m-9.48 0h-19m-9.48 0h-9.5" stroke="#333" fill="none"/><path d="M1020.48 1080.5h-.96v-.5h.96zM901.26 1450.47h-.5v-.94h.5z" stroke="#333" stroke-width=".05" fill="#333"/><path d="M774 1080.5v9.92m0 9.9v19.85m0 9.9v19.85m0 9.9v19.85m0 9.9v19.85m0 9.9v19.85m0 9.9v19.85m0 9.9v19.85m0 9.9v19.85m0 9.9v19.85m0 9.9v9.93M774 1080.5v-.5" stroke="#333" fill="none"/><path d="M774.48 1378.5h-.95v-.5h.95z" stroke="#333" stroke-width=".05" fill="#333"/><path d="M640 1388a8 8 0 0 1 8-8h243.25a8 8 0 0 1 8 8v124a8 8 0 0 1-8 8H648a8 8 0 0 1-8-8z" stroke="#6f7681" stroke-width="3" fill="#fff"/><use xlink:href="#r" transform="matrix(1,0,0,1,640,1380) translate(11.71203124999999 77.23958333333334)"/><use xlink:href="#s" transform="matrix(1,0,0,1,640,1380) translate(116.49067708333332 77.23958333333334)"/><path d="M780 1522.5v159" stroke="#3a414a" stroke-width="2" fill="none"/><path d="M780.98 1522.53H779v-1.03H781z" stroke="#3a414a" stroke-width=".05" fill="#3a414a"/><path d="M780 1696.76l-4.63-14.26h9.26z" stroke="#3a414a" stroke-width="2" fill="#3a414a"/><path d="M760 540.5a8 8 0 0 1 8-8h164a8 8 0 0 1 8 8v44a8 8 0 0 1-8 8H768a8 8 0 0 1-8-8z" fill="none"/><use xlink:href="#t" transform="matrix(1,0,0,1,760,532.5) translate(38.927951388888886 36.076388888888886)"/><use xlink:href="#u" transform="matrix(1,0,0,1,760,532.5) translate(98.8671875 36.076388888888886)"/><path d="M1013.34 755.46v-11.5m0-11.5v-11.5l-.06-.78-.18-.77-.3-.7-.4-.68-.52-.6-.6-.5-.67-.42-.7-.3-.78-.18-.78-.06H997.6m-10.72 0h-21.45m-10.73 0h-10.73l-.78-.06-.77-.2-.73-.3-.67-.4-.6-.5-.5-.6-.4-.67-.3-.73-.2-.76-.06-.78v-8.5m0-8.5V677m0-8.5v-8.52l.02-.02v-.02h.07v-.02h.02l.02-.02v-8.54m0-8.5v-17m0-8.5v-8.48l-.05-.78-.18-.77-.3-.7-.42-.68-.5-.6-.6-.5-.68-.42-.72-.3-.76-.18-.8-.06h-9.2m-9.2 0h-18.43m-9.22 0h-18.42m-9.2 0h-18.43m-9.2 0h-18.44m-9.22 0h-18.42m-9.2 0h-9.22" stroke="#333" fill="none"/><path d="M1013.82 755.96h-.96v-.5h.96z" stroke="#333" stroke-width=".05" fill="#333"/><path d="M768.35 603.86h-.5M498.77 755.46v-11.5m0-11.5v-11.5l.06-.78.2-.77.3-.7.4-.68.5-.6.6-.5.67-.42.73-.3.76-.18.77-.06h9.03m9.02 0h18.05m9.03 0h18.05m9.02 0H585l.78-.06.76-.2.73-.3.67-.4.6-.5.5-.6.42-.67.3-.73.18-.76.06-.78V699.6m0-11.33v-22.7m0-11.33v-22.7m0-11.34v-11.34l.06-.78.2-.77.28-.7.42-.68.5-.6.6-.5.67-.42.73-.3.76-.18.78-.06h9.57m9.58 0h19.15m9.57 0h19.15m9.58 0h19.14m9.58 0h19.15m9.57 0h19.15m9.57 0h9.57" stroke="#333" fill="none"/><path d="M499.25 755.96h-.95v-.5h.95z" stroke="#333" stroke-width=".05" fill="#333"/><path d="M767.33 603.86h.5" stroke="#333" fill="none"/><path d="M762.36 161v180.5M762.36 161.03V160" stroke="#3a414a" stroke-width="2" fill="none"/><path d="M762.36 356.76l-4.63-14.26H767z" stroke="#3a414a" stroke-width="2" fill="#3a414a"/><path d="M560-252a8 8 0 0 1 8-8h407.5a8 8 0 0 1 8 8v84a8 8 0 0 1-8 8H568a8 8 0 0 1-8-8z" fill="none"/><g><use xlink:href="#v" transform="matrix(1,0,0,1,560,-260) translate(28.976996527777743 34.006076388888886)"/><use xlink:href="#w" transform="matrix(1,0,0,1,560,-260) translate(97.7866753472222 34.006076388888886)"/><use xlink:href="#x" transform="matrix(1,0,0,1,560,-260) translate(192.18663194444443 34.006076388888886)"/><use xlink:href="#y" transform="matrix(1,0,0,1,560,-260) translate(220.83246527777777 34.006076388888886)"/><use xlink:href="#z" transform="matrix(1,0,0,1,560,-260) translate(308.5842013888889 34.006076388888886)"/><use xlink:href="#A" transform="matrix(1,0,0,1,560,-260) translate(97.0466579861111 82.70399305555556)"/><use xlink:href="#B" transform="matrix(1,0,0,1,560,-260) translate(235.46571180555554 82.70399305555556)"/></g><path d="M557 540.5a8 8 0 0 1 8-8h164a8 8 0 0 1 8 8v44a8 8 0 0 1-8 8H565a8 8 0 0 1-8-8z" fill="none"/><g><use xlink:href="#C" transform="matrix(1,0,0,1,557,532.5) translate(0.1822916666666572 36.076388888888886)"/><use xlink:href="#D" transform="matrix(1,0,0,1,557,532.5) translate(115.15625 36.076388888888886)"/></g><defs><path d="M631-137c179 0 314-70 314-231 0-71-25-127-75-166s-141-77-272-115c-165-47-285-106-360-175s-112-154-112-255c0-245 231-397 495-397 206 0 369 89 449 218 43 68 65 142 65 223H942c0-184-129-283-321-283-172 0-299 76-301 236 0 59 26 109 76 150s135 78 256 113c205 59 345 116 436 256 35 53 50 119 50 193-2 256-231 398-507 390C333 12 90-129 80-422h193c0 187 160 285 358 285" id="E"/><path d="M491 20c-241-1-355-148-355-398v-704h185v699c0 164 67 246 200 246 141 0 235-53 282-158v-787h185V0H812l-4-107C736-22 630 20 491 20" id="F"/><path d="M632-1102c291 0 422 251 422 573 0 297-141 548-419 549-131 0-235-42-310-125v521H140v-1498h169l9 120c75-93 180-140 314-140zm-53 971c207 0 290-180 290-419 0-218-92-395-292-395-112 0-196 50-252 149v517c55 99 140 148 254 148" id="G"/><path d="M584 20C278 26 81-227 91-551c10-320 175-545 491-551 308-5 503 247 494 573-9 322-175 543-492 549zm-2-970c-208 0-305 185-305 421 0 216 106 398 307 398 211 0 307-186 307-420 0-214-109-399-309-399" id="H"/><path d="M663-916c-163-27-288 18-338 148V0H140v-1082h180l3 125c61-97 147-145 258-145 36 0 63 5 82 14v172" id="I"/><path d="M456 20C285 20 205-92 206-268v-671H9v-143h197v-262h185v262h202v143H391v671c-9 125 92 149 207 118V0c-49 13-96 20-142 20" id="J"/><path d="M599-131c141 0 220-65 285-146l113 88C906-50 770 20 589 20 281 21 93-214 93-545c0-223 93-397 233-485 74-48 154-72 240-72 300 2 449 218 445 537v77H278c0 197 129 357 321 357zm227-509c-3-180-88-310-260-310-170 0-264 140-282 310h542" id="K"/><path d="M520 20C244 20 95-247 95-550c0-298 151-550 427-552 127 0 227 43 301 130v-564h185V0H838l-9-116C755-25 652 20 520 20zm48-965c-210 0-288 177-288 416 0 218 87 392 286 392 117 0 203-53 257-158v-497c-55-102-140-153-255-153" id="L"/><g id="a"><use transform="matrix(0.008173828125000001,0,0,0.008173828125000001,0,0)" xlink:href="#E"/><use transform="matrix(0.008173828125000001,0,0,0.008173828125000001,9.931201171875001,0)" xlink:href="#F"/><use transform="matrix(0.008173828125000001,0,0,0.008173828125000001,19.159453125000002,0)" xlink:href="#G"/><use transform="matrix(0.008173828125000001,0,0,0.008173828125000001,28.551181640625003,0)" xlink:href="#G"/><use transform="matrix(0.008173828125000001,0,0,0.008173828125000001,37.94291015625001,0)" xlink:href="#H"/><use transform="matrix(0.008173828125000001,0,0,0.008173828125000001,47.48994140625001,0)" xlink:href="#I"/><use transform="matrix(0.008173828125000001,0,0,0.008173828125000001,53.563095703125015,0)" xlink:href="#J"/><use transform="matrix(0.008173828125000001,0,0,0.008173828125000001,59.031386718750014,0)" xlink:href="#K"/><use transform="matrix(0.008173828125000001,0,0,0.008173828125000001,67.89999023437501,0)" xlink:href="#L"/></g><path d="M973-380H363L226 0H28l556-1456h168L1309 0h-197zM421-538h495l-248-681" id="M"/><path d="M375 0H183v-1456h192V0" id="N"/><g id="b"><use transform="matrix(0.008173828125000001,0,0,0.008173828125000001,0,0)" xlink:href="#M"/><use transform="matrix(0.008173828125000001,0,0,0.008173828125000001,10.920234375000001,0)" xlink:href="#N"/></g><path d="M1216-1011c-1 297-202 441-512 441H361V0H169v-1456h537c297-6 510 164 510 445zm-192 2c1-178-126-288-307-289H361v571h345c196 1 318-92 318-282" id="O"/><path d="M497-251l268-831h189L566 0H425L33-1082h189" id="P"/><path d="M341 0H156v-1082h185V0zm-91-1264c-68 0-108-42-109-105 0-62 41-107 109-107s110 44 110 107-42 105-110 105" id="Q"/><path d="M538-131c121 0 232-49 232-156 0-50-20-88-56-117-73-60-334-92-420-143-92-55-162-110-162-238 0-190 192-317 400-317 223 0 414 129 413 338H759c0-108-110-186-227-186-119 0-215 53-215 159 0 45 18 78 53 101 76 52 331 90 416 139 98 57 169 115 169 251C955-92 760 20 538 20c-176 0-314-68-386-174-38-55-57-115-57-179h185c6 129 116 202 258 202" id="R"/><g id="c"><use transform="matrix(0.008173828125000001,0,0,0.008173828125000001,0,0)" xlink:href="#O"/><use transform="matrix(0.008173828125000001,0,0,0.008173828125000001,10.5605859375,0)" xlink:href="#I"/><use transform="matrix(0.008173828125000001,0,0,0.008173828125000001,16.061572265625003,0)" xlink:href="#H"/><use transform="matrix(0.008173828125000001,0,0,0.008173828125000001,25.485996093750003,0)" xlink:href="#P"/><use transform="matrix(0.008173828125000001,0,0,0.008173828125000001,33.594433593750004,0)" xlink:href="#Q"/><use transform="matrix(0.008173828125000001,0,0,0.008173828125000001,37.656826171875004,0)" xlink:href="#L"/><use transform="matrix(0.008173828125000001,0,0,0.008173828125000001,47.09759765625,0)" xlink:href="#K"/><use transform="matrix(0.008173828125000001,0,0,0.008173828125000001,55.966201171875,0)" xlink:href="#I"/><use transform="matrix(0.008173828125000001,0,0,0.008173828125000001,61.6306640625,0)" xlink:href="#R"/></g><path d="M319-664C304-226 428 158 661 357l-38 113c-89-49-172-133-254-248C142-97 71-578 194-1025c67-244 240-513 429-618l38 122c-201 153-330 502-342 857" id="S"/><path d="M362-157h690V0H169v-1456h193v1299" id="T"/><path d="M417-1456L893-268l476-1188h249V0h-192c-4-403 4-794 18-1179L966 0H819L342-1176c15 384 23 773 19 1176H169v-1456h248" id="U"/><g id="d"><use transform="matrix(0.008173828125000001,0,0,0.008173828125000001,0,0)" xlink:href="#S"/><use transform="matrix(0.008173828125000001,0,0,0.008173828125000001,5.721679687500001,0)" xlink:href="#T"/><use transform="matrix(0.008173828125000001,0,0,0.008173828125000001,14.729238281250002,0)" xlink:href="#T"/><use transform="matrix(0.008173828125000001,0,0,0.008173828125000001,23.736796875000003,0)" xlink:href="#U"/></g><path d="M992-673H361v516h733V0H169v-1456h915v158H361v468h631v157" id="V"/><path d="M589-945c-131 0-219 81-264 174V0H140v-1082h175l6 136c83-104 191-156 324-156 229 0 346 129 346 387V0H806v-716c-2-153-65-229-217-229" id="W"/><path d="M38 357C331 141 457-487 337-984c-53-219-157-429-299-546l39-113c190 106 362 378 431 621 75 268 76 597 0 868C440 88 266 365 77 470" id="X"/><g id="e"><use transform="matrix(0.008173828125000001,0,0,0.008173828125000001,0,0)" xlink:href="#V"/><use transform="matrix(0.008173828125000001,0,0,0.008173828125000001,9.5143359375,0)" xlink:href="#W"/><use transform="matrix(0.008173828125000001,0,0,0.008173828125000001,18.75076171875,0)" xlink:href="#L"/><use transform="matrix(0.008173828125000001,0,0,0.008173828125000001,28.191533203124997,0)" xlink:href="#G"/><use transform="matrix(0.008173828125000001,0,0,0.008173828125000001,37.583261718749995,0)" xlink:href="#H"/><use transform="matrix(0.008173828125000001,0,0,0.008173828125000001,47.13029296875,0)" xlink:href="#Q"/><use transform="matrix(0.008173828125000001,0,0,0.008173828125000001,51.192685546875,0)" xlink:href="#W"/><use transform="matrix(0.008173828125000001,0,0,0.008173828125000001,60.429111328124996,0)" xlink:href="#J"/><use transform="matrix(0.008173828125000001,0,0,0.008173828125000001,65.89740234375,0)" xlink:href="#R"/><use transform="matrix(0.008173828125000001,0,0,0.008173828125000001,74.52896484375,0)" xlink:href="#X"/></g><path d="M1160-420C1159-145 963 0 674 0H169v-1456h476c294-1 476 112 476 388 0 153-99 253-216 302 146 38 255 167 255 346zM678-157c171 2 289-95 289-261 0-175-95-263-286-263H361v524h317zm250-912c-2-172-104-229-283-229H361v463h290c157 3 278-84 277-234" id="Y"/><path d="M561-1102c238-4 403 126 403 351v498c0 99 13 178 38 237V0H808c-11-21-19-59-26-114C696-25 593 20 474 20c-199 0-368-130-365-320 4-251 214-359 490-356h180v-85c-1-135-86-212-229-212-115 0-232 67-233 171H131c20-205 206-316 430-320zM294-326c0 117 90 185 207 185 122 0 239-75 278-162v-222H634c-227 0-340 66-340 199" id="Z"/><path d="M277-555c0 244 77 420 297 424 127 2 249-93 255-210h175C980-127 805 20 574 20 258 20 81-222 92-562c11-319 164-533 481-540 237-5 426 165 431 392H829c-7-133-115-242-256-240-209 4-296 166-296 395" id="aa"/><path d="M589-945c-131 0-219 81-264 174V0H140v-1536h185v585c82-101 189-151 320-151 229 0 346 129 346 387V0H806v-716c-2-153-65-229-217-229" id="ab"/><g id="f"><use transform="matrix(0.013020833333333334,0,0,0.013020833333333334,0,0)" xlink:href="#Y"/><use transform="matrix(0.013020833333333334,0,0,0.013020833333333334,16.6015625,0)" xlink:href="#Z"/><use transform="matrix(0.013020833333333334,0,0,0.013020833333333334,31.106770833333336,0)" xlink:href="#J"/><use transform="matrix(0.013020833333333334,0,0,0.013020833333333334,39.817708333333336,0)" xlink:href="#aa"/><use transform="matrix(0.013020833333333334,0,0,0.013020833333333334,53.77604166666667,0)" xlink:href="#ab"/></g><g id="g"><use transform="matrix(0.013020833333333334,0,0,0.013020833333333334,0,0)" xlink:href="#O"/><use transform="matrix(0.013020833333333334,0,0,0.013020833333333334,16.822916666666668,0)" xlink:href="#I"/><use transform="matrix(0.013020833333333334,0,0,0.013020833333333334,25.5859375,0)" xlink:href="#H"/><use transform="matrix(0.013020833333333334,0,0,0.013020833333333334,40.794270833333336,0)" xlink:href="#aa"/><use transform="matrix(0.013020833333333334,0,0,0.013020833333333334,54.75260416666667,0)" xlink:href="#K"/><use transform="matrix(0.013020833333333334,0,0,0.013020833333333334,68.88020833333334,0)" xlink:href="#R"/><use transform="matrix(0.013020833333333334,0,0,0.013020833333333334,82.63020833333334,0)" xlink:href="#R"/></g><linearGradient gradientUnits="userSpaceOnUse" id="h" x1="736.94" y1="1768.23" x2="828.01" y2="1768.21"><stop offset="0%" stop-color="#005ba1"/><stop offset="7%" stop-color="#0060a9"/><stop offset="36%" stop-color="#0071c8"/><stop offset="52%" stop-color="#0078d4"/><stop offset="64%" stop-color="#0074cd"/><stop offset="82%" stop-color="#006abb"/><stop offset="100%" stop-color="#005ba1"/></linearGradient><path d="M1222-777c17 480-206 763-650 777H169v-1456h411c408 9 627 269 642 679zm-190 4c3-312-149-522-447-525H361v1141h202c308 0 473-209 469-531v-85" id="ac"/><path d="M634-1102c292 0 422 254 422 573 0 298-143 547-420 549-137 0-242-48-317-145L310 0H140v-1536h185v573c75-93 178-139 309-139zm-44 965c207 0 281-175 281-413 0-224-79-395-283-395-122 0-210 57-263 170v468c57 113 145 170 265 170" id="ad"/><g id="i"><use transform="matrix(0.013020833333333334,0,0,0.013020833333333334,0,0)" xlink:href="#ac"/><use transform="matrix(0.013020833333333334,0,0,0.013020833333333334,17.486979166666668,0)" xlink:href="#Z"/><use transform="matrix(0.013020833333333334,0,0,0.013020833333333334,31.9921875,0)" xlink:href="#J"/><use transform="matrix(0.013020833333333334,0,0,0.013020833333333334,40.703125,0)" xlink:href="#Z"/><use transform="matrix(0.013020833333333334,0,0,0.013020833333333334,55.208333333333336,0)" xlink:href="#ad"/><use transform="matrix(0.013020833333333334,0,0,0.013020833333333334,70.16927083333334,0)" xlink:href="#Z"/><use transform="matrix(0.013020833333333334,0,0,0.013020833333333334,84.67447916666667,0)" xlink:href="#R"/><use transform="matrix(0.013020833333333334,0,0,0.013020833333333334,98.42447916666667,0)" xlink:href="#K"/></g><path d="M688-137c238 0 323-102 359-325h193c-32 297-228 482-552 482-361 0-569-299-569-680 0-197 8-360 73-497 88-186 257-317 513-319 316-2 509 195 535 488h-193c-31-212-118-330-342-330-272 0-397 224-393 523v141c-3 282 115 517 376 517" id="ae"/><path d="M1161-1018c0 201-122 330-278 388l342 618V0h-206L703-589H361V0H168v-1456h482c310-2 511 139 511 438zm-193 0c0-187-120-280-313-280H361v552h295c179 3 313-101 312-272" id="af"/><path d="M703-1476c426 0 599 333 586 795-11 408-187 701-584 701-422 0-587-333-587-793 0-282 106-507 280-617 89-56 190-86 305-86zm2 1333c312 0 393-279 393-632 0-308-116-536-395-536-269 0-394 232-394 523v107c-4 298 123 538 396 538" id="ag"/><path d="M1288 0h-193L362-1122V0H169v-1456h193l735 1127v-1127h191V0" id="ah"/><g id="j"><use transform="matrix(0.013020833333333334,0,0,0.013020833333333334,0,0)" xlink:href="#ae"/><use transform="matrix(0.013020833333333334,0,0,0.013020833333333334,17.356770833333336,0)" xlink:href="#af"/><use transform="matrix(0.013020833333333334,0,0,0.013020833333333334,33.77604166666667,0)" xlink:href="#ag"/><use transform="matrix(0.013020833333333334,0,0,0.013020833333333334,52.10937500000001,0)" xlink:href="#ah"/></g><path d="M1175-1298H707V0H516v-1298H49v-158h1126v158" id="ai"/><path d="M521 20C240 20 96-239 96-550c0-303 147-552 427-552 132 0 235 47 309 140l9-120h169V-26c4 277-183 454-459 452-165-1-334-81-400-187l96-111c79 98 176 147 291 147 180 1 288-109 286-290v-93C750-23 649 20 521 20zm48-965c-209 0-287 178-287 416 0 217 86 392 285 392 117 0 202-53 257-159v-494c-57-103-142-155-255-155" id="aj"/><g id="k"><use transform="matrix(0.013020833333333334,0,0,0.013020833333333334,0,0)" xlink:href="#ai"/><use transform="matrix(0.013020833333333334,0,0,0.013020833333333334,14.934895833333334,0)" xlink:href="#I"/><use transform="matrix(0.013020833333333334,0,0,0.013020833333333334,23.958333333333336,0)" xlink:href="#Q"/><use transform="matrix(0.013020833333333334,0,0,0.013020833333333334,30.4296875,0)" xlink:href="#aj"/><use transform="matrix(0.013020833333333334,0,0,0.013020833333333334,45.390625,0)" xlink:href="#aj"/><use transform="matrix(0.013020833333333334,0,0,0.013020833333333334,60.3515625,0)" xlink:href="#K"/><use transform="matrix(0.013020833333333334,0,0,0.013020833333333334,74.47916666666667,0)" xlink:href="#I"/></g><g id="l"><use transform="matrix(0.008680555555555556,0,0,0.008680555555555556,0,0)" xlink:href="#O"/><use transform="matrix(0.008680555555555556,0,0,0.008680555555555556,11.215277777777779,0)" xlink:href="#I"/><use transform="matrix(0.008680555555555556,0,0,0.008680555555555556,17.057291666666668,0)" xlink:href="#H"/><use transform="matrix(0.008680555555555556,0,0,0.008680555555555556,27.065972222222225,0)" xlink:href="#P"/><use transform="matrix(0.008680555555555556,0,0,0.008680555555555556,35.677083333333336,0)" xlink:href="#Q"/><use transform="matrix(0.008680555555555556,0,0,0.008680555555555556,39.99131944444444,0)" xlink:href="#L"/><use transform="matrix(0.008680555555555556,0,0,0.008680555555555556,50.017361111111114,0)" xlink:href="#K"/><use transform="matrix(0.008680555555555556,0,0,0.008680555555555556,59.43576388888889,0)" xlink:href="#I"/></g><path d="M729 0H543v-1233l-373 137v-168l530-199h29V0" id="ak"/><use transform="matrix(0.008680555555555556,0,0,0.008680555555555556,0,0)" xlink:href="#ak" id="m"/><path d="M730-137c145 0 253-29 323-105v-327H716v-156h528v534C1148-51 964 20 729 20c-394 0-598-279-607-678v-127c-5-410 194-690 585-691 310-1 499 171 537 447h-192c-36-193-151-289-344-289-285 0-393 220-393 528v119c-5 296 140 534 415 534" id="al"/><path d="M1240-945c-141 0-250 95-250 227V0H804v-709c0-157-77-236-231-236-121 0-204 52-249 155V0H139v-1082h175l5 120c79-93 186-140 321-140 151 0 254 58 309 174 69-98 181-174 345-174 237 0 362 126 362 377V0h-185v-714c-2-159-67-231-231-231" id="am"/><g id="n"><use transform="matrix(0.008680555555555556,0,0,0.008680555555555556,0,0)" xlink:href="#S"/><use transform="matrix(0.008680555555555556,0,0,0.008680555555555556,6.076388888888889,0)" xlink:href="#al"/><use transform="matrix(0.008680555555555556,0,0,0.008680555555555556,18.18576388888889,0)" xlink:href="#K"/><use transform="matrix(0.008680555555555556,0,0,0.008680555555555556,27.604166666666668,0)" xlink:href="#am"/><use transform="matrix(0.008680555555555556,0,0,0.008680555555555556,43.18576388888889,0)" xlink:href="#Q"/><use transform="matrix(0.008680555555555556,0,0,0.008680555555555556,47.50000000000001,0)" xlink:href="#W"/><use transform="matrix(0.008680555555555556,0,0,0.008680555555555556,57.309027777777786,0)" xlink:href="#Q"/><use transform="matrix(0.008680555555555556,0,0,0.008680555555555556,61.6232638888889,0)" xlink:href="#X"/></g><path d="M569-1476c255 0 440 146 439 390 0 143-91 314-274 512L344-151h731V0H121v-133l504-560c75-85 125-155 155-207 105-184 6-424-211-424-183 0-293 113-291 297H93c-3-270 199-449 476-449" id="an"/><use transform="matrix(0.008680555555555556,0,0,0.008680555555555556,0,0)" xlink:href="#an" id="o"/><path d="M177 125H18l608-1581h158" id="ao"/><g id="p"><use transform="matrix(0.008680555555555556,0,0,0.008680555555555556,0,0)" xlink:href="#S"/><use transform="matrix(0.008680555555555556,0,0,0.008680555555555556,6.076388888888889,0)" xlink:href="#ah"/><use transform="matrix(0.008680555555555556,0,0,0.008680555555555556,18.75,0)" xlink:href="#ao"/><use transform="matrix(0.008680555555555556,0,0,0.008680555555555556,26.07638888888889,0)" xlink:href="#M"/><use transform="matrix(0.008680555555555556,0,0,0.008680555555555556,37.673611111111114,0)" xlink:href="#X"/></g><path d="M832-402c-1-179-119-264-303-265H390v-151h139c164 0 281-91 281-250 0-171-85-256-255-256-154 0-265 99-263 250H107c-4-235 205-402 448-402 266 0 444 150 440 412-2 148-109 272-229 317 147 45 249 158 251 341 3 262-197 426-461 426C299 20 91-135 94-384h186c-2 156 116 253 276 253 176 0 277-96 276-271" id="ap"/><use transform="matrix(0.008680555555555556,0,0,0.008680555555555556,0,0)" xlink:href="#ap" id="q"/><path fill="#3a414a" d="M1216-1011c-1 297-202 441-512 441H361V0H169v-1456h537c297-6 510 164 510 445zm-192 2c1-178-126-288-307-289H361v571h345c196 1 318-92 318-282" id="aq"/><path fill="#3a414a" d="M663-916c-163-27-288 18-338 148V0H140v-1082h180l3 125c61-97 147-145 258-145 36 0 63 5 82 14v172" id="ar"/><path fill="#3a414a" d="M584 20C278 26 81-227 91-551c10-320 175-545 491-551 308-5 503 247 494 573-9 322-175 543-492 549zm-2-970c-208 0-305 185-305 421 0 216 106 398 307 398 211 0 307-186 307-420 0-214-109-399-309-399" id="as"/><path fill="#3a414a" d="M497-251l268-831h189L566 0H425L33-1082h189" id="at"/><path fill="#3a414a" d="M341 0H156v-1082h185V0zm-91-1264c-68 0-108-42-109-105 0-62 41-107 109-107s110 44 110 107-42 105-110 105" id="au"/><path fill="#3a414a" d="M520 20C244 20 95-247 95-550c0-298 151-550 427-552 127 0 227 43 301 130v-564h185V0H838l-9-116C755-25 652 20 520 20zm48-965c-210 0-288 177-288 416 0 218 87 392 286 392 117 0 203-53 257-158v-497c-55-102-140-153-255-153" id="av"/><path fill="#3a414a" d="M599-131c141 0 220-65 285-146l113 88C906-50 770 20 589 20 281 21 93-214 93-545c0-223 93-397 233-485 74-48 154-72 240-72 300 2 449 218 445 537v77H278c0 197 129 357 321 357zm227-509c-3-180-88-310-260-310-170 0-264 140-282 310h542" id="aw"/><g id="r"><use transform="matrix(0.013020833333333334,0,0,0.013020833333333334,0,0)" xlink:href="#aq"/><use transform="matrix(0.013020833333333334,0,0,0.013020833333333334,16.822916666666668,0)" xlink:href="#ar"/><use transform="matrix(0.013020833333333334,0,0,0.013020833333333334,25.5859375,0)" xlink:href="#as"/><use transform="matrix(0.013020833333333334,0,0,0.013020833333333334,40.598958333333336,0)" xlink:href="#at"/><use transform="matrix(0.013020833333333334,0,0,0.013020833333333334,53.515625,0)" xlink:href="#au"/><use transform="matrix(0.013020833333333334,0,0,0.013020833333333334,59.98697916666667,0)" xlink:href="#av"/><use transform="matrix(0.013020833333333334,0,0,0.013020833333333334,75.02604166666666,0)" xlink:href="#aw"/><use transform="matrix(0.013020833333333334,0,0,0.013020833333333334,89.15364583333333,0)" xlink:href="#ar"/></g><path fill="#3a414a" d="M1161-1018c0 201-122 330-278 388l342 618V0h-206L703-589H361V0H168v-1456h482c310-2 511 139 511 438zm-193 0c0-187-120-280-313-280H361v552h295c179 3 313-101 312-272" id="ax"/><path fill="#3a414a" d="M538-131c121 0 232-49 232-156 0-50-20-88-56-117-73-60-334-92-420-143-92-55-162-110-162-238 0-190 192-317 400-317 223 0 414 129 413 338H759c0-108-110-186-227-186-119 0-215 53-215 159 0 45 18 78 53 101 76 52 331 90 416 139 98 57 169 115 169 251C955-92 760 20 538 20c-176 0-314-68-386-174-38-55-57-115-57-179h185c6 129 116 202 258 202" id="ay"/><path fill="#3a414a" d="M632-1102c291 0 422 251 422 573 0 297-141 548-419 549-131 0-235-42-310-125v521H140v-1498h169l9 120c75-93 180-140 314-140zm-53 971c207 0 290-180 290-419 0-218-92-395-292-395-112 0-196 50-252 149v517c55 99 140 148 254 148" id="az"/><path fill="#3a414a" d="M589-945c-131 0-219 81-264 174V0H140v-1082h175l6 136c83-104 191-156 324-156 229 0 346 129 346 387V0H806v-716c-2-153-65-229-217-229" id="aA"/><g id="s"><use transform="matrix(0.013020833333333334,0,0,0.013020833333333334,0,0)" xlink:href="#ax"/><use transform="matrix(0.013020833333333334,0,0,0.013020833333333334,16.419270833333336,0)" xlink:href="#aw"/><use transform="matrix(0.013020833333333334,0,0,0.013020833333333334,30.546875,0)" xlink:href="#ay"/><use transform="matrix(0.013020833333333334,0,0,0.013020833333333334,44.296875,0)" xlink:href="#az"/><use transform="matrix(0.013020833333333334,0,0,0.013020833333333334,59.2578125,0)" xlink:href="#as"/><use transform="matrix(0.013020833333333334,0,0,0.013020833333333334,74.46614583333333,0)" xlink:href="#aA"/><use transform="matrix(0.013020833333333334,0,0,0.013020833333333334,89.1796875,0)" xlink:href="#ay"/><use transform="matrix(0.013020833333333334,0,0,0.013020833333333334,102.9296875,0)" xlink:href="#aw"/><use transform="matrix(0.013020833333333334,0,0,0.013020833333333334,117.05729166666667,0)" xlink:href="#ay"/></g><path d="M1288 0h-193v-673H361V0H169v-1456h192v626h734v-626h193V0" id="aB"/><g id="t"><use transform="matrix(0.008680555555555556,0,0,0.008680555555555556,0,0)" xlink:href="#aB"/><use transform="matrix(0.008680555555555556,0,0,0.008680555555555556,12.421875000000002,0)" xlink:href="#ai"/><use transform="matrix(0.008680555555555556,0,0,0.008680555555555556,23.16840277777778,0)" xlink:href="#ai"/><use transform="matrix(0.008680555555555556,0,0,0.008680555555555556,33.77604166666667,0)" xlink:href="#O"/><use transform="matrix(0.008680555555555556,0,0,0.008680555555555556,44.99131944444445,0)" xlink:href="#E"/></g><path d="M902-489h202v151H902V0H716v-338H53v-109l652-1009h197v967zm-639 0h453v-714l-22 40" id="aC"/><g id="u"><use transform="matrix(0.008680555555555556,0,0,0.008680555555555556,0,0)" xlink:href="#S"/><use transform="matrix(0.008680555555555556,0,0,0.008680555555555556,6.076388888888889,0)" xlink:href="#aC"/><use transform="matrix(0.008680555555555556,0,0,0.008680555555555556,16.05902777777778,0)" xlink:href="#aC"/><use transform="matrix(0.008680555555555556,0,0,0.008680555555555556,26.041666666666668,0)" xlink:href="#ap"/><use transform="matrix(0.008680555555555556,0,0,0.008680555555555556,36.02430555555556,0)" xlink:href="#X"/></g><path fill="#3a414a" d="M1160-420C1159-145 963 0 674 0H169v-1456h476c294-1 476 112 476 388 0 153-99 253-216 302 146 38 255 167 255 346zM678-157c171 2 289-95 289-261 0-175-95-263-286-263H361v524h317zm250-912c-2-172-104-229-283-229H361v463h290c157 3 278-84 277-234" id="aD"/><path fill="#3a414a" d="M561-1102c238-4 403 126 403 351v498c0 99 13 178 38 237V0H808c-11-21-19-59-26-114C696-25 593 20 474 20c-199 0-368-130-365-320 4-251 214-359 490-356h180v-85c-1-135-86-212-229-212-115 0-232 67-233 171H131c20-205 206-316 430-320zM294-326c0 117 90 185 207 185 122 0 239-75 278-162v-222H634c-227 0-340 66-340 199" id="aE"/><path fill="#3a414a" d="M456 20C285 20 205-92 206-268v-671H9v-143h197v-262h185v262h202v143H391v671c-9 125 92 149 207 118V0c-49 13-96 20-142 20" id="aF"/><path fill="#3a414a" d="M277-555c0 244 77 420 297 424 127 2 249-93 255-210h175C980-127 805 20 574 20 258 20 81-222 92-562c11-319 164-533 481-540 237-5 426 165 431 392H829c-7-133-115-242-256-240-209 4-296 166-296 395" id="aG"/><path fill="#3a414a" d="M589-945c-131 0-219 81-264 174V0H140v-1536h185v585c82-101 189-151 320-151 229 0 346 129 346 387V0H806v-716c-2-153-65-229-217-229" id="aH"/><g id="v"><use transform="matrix(0.01193576388888889,0,0,0.01193576388888889,0,0)" xlink:href="#aD"/><use transform="matrix(0.01193576388888889,0,0,0.01193576388888889,15.218098958333334,0)" xlink:href="#aE"/><use transform="matrix(0.01193576388888889,0,0,0.01193576388888889,28.514539930555557,0)" xlink:href="#aF"/><use transform="matrix(0.01193576388888889,0,0,0.01193576388888889,36.49956597222222,0)" xlink:href="#aG"/><use transform="matrix(0.01193576388888889,0,0,0.01193576388888889,49.294704861111114,0)" xlink:href="#aH"/></g><g id="w"><use transform="matrix(0.01193576388888889,0,0,0.01193576388888889,0,0)" xlink:href="#aq"/><use transform="matrix(0.01193576388888889,0,0,0.01193576388888889,15.421006944444446,0)" xlink:href="#ar"/><use transform="matrix(0.01193576388888889,0,0,0.01193576388888889,23.453776041666668,0)" xlink:href="#as"/><use transform="matrix(0.01193576388888889,0,0,0.01193576388888889,37.39474826388889,0)" xlink:href="#aG"/><use transform="matrix(0.01193576388888889,0,0,0.01193576388888889,50.18988715277778,0)" xlink:href="#aw"/><use transform="matrix(0.01193576388888889,0,0,0.01193576388888889,63.14019097222223,0)" xlink:href="#ay"/><use transform="matrix(0.01193576388888889,0,0,0.01193576388888889,75.7443576388889,0)" xlink:href="#ay"/></g><path fill="#3a414a" d="M973-380H363L226 0H28l556-1456h168L1309 0h-197zM421-538h495l-248-681" id="aI"/><path fill="#3a414a" d="M375 0H183v-1456h192V0" id="aJ"/><g id="x"><use transform="matrix(0.01193576388888889,0,0,0.01193576388888889,0,0)" xlink:href="#aI"/><use transform="matrix(0.01193576388888889,0,0,0.01193576388888889,15.946180555555557,0)" xlink:href="#aJ"/></g><path fill="#3a414a" d="M1175-1298H707V0H516v-1298H49v-158h1126v158" id="aK"/><path fill="#3a414a" d="M521 20C240 20 96-239 96-550c0-303 147-552 427-552 132 0 235 47 309 140l9-120h169V-26c4 277-183 454-459 452-165-1-334-81-400-187l96-111c79 98 176 147 291 147 180 1 288-109 286-290v-93C750-23 649 20 521 20zm48-965c-209 0-287 178-287 416 0 217 86 392 285 392 117 0 202-53 257-159v-494c-57-103-142-155-255-155" id="aL"/><g id="y"><use transform="matrix(0.01193576388888889,0,0,0.01193576388888889,0,0)" xlink:href="#aK"/><use transform="matrix(0.01193576388888889,0,0,0.01193576388888889,13.690321180555557,0)" xlink:href="#ar"/><use transform="matrix(0.01193576388888889,0,0,0.01193576388888889,21.484375,0)" xlink:href="#aE"/><use transform="matrix(0.01193576388888889,0,0,0.01193576388888889,34.78081597222222,0)" xlink:href="#av"/><use transform="matrix(0.01193576388888889,0,0,0.01193576388888889,48.566623263888886,0)" xlink:href="#au"/><use transform="matrix(0.01193576388888889,0,0,0.01193576388888889,54.49869791666666,0)" xlink:href="#aA"/><use transform="matrix(0.01193576388888889,0,0,0.01193576388888889,67.98611111111111,0)" xlink:href="#aL"/></g><g id="z"><use transform="matrix(0.01193576388888889,0,0,0.01193576388888889,0,0)" xlink:href="#aJ"/><use transform="matrix(0.01193576388888889,0,0,0.01193576388888889,6.648220486111112,0)" xlink:href="#aA"/><use transform="matrix(0.01193576388888889,0,0,0.01193576388888889,20.135633680555557,0)" xlink:href="#ay"/><use transform="matrix(0.01193576388888889,0,0,0.01193576388888889,32.73980034722223,0)" xlink:href="#au"/><use transform="matrix(0.01193576388888889,0,0,0.01193576388888889,38.67187500000001,0)" xlink:href="#aL"/><use transform="matrix(0.01193576388888889,0,0,0.01193576388888889,52.386067708333336,0)" xlink:href="#aH"/><use transform="matrix(0.01193576388888889,0,0,0.01193576388888889,65.84960937500001,0)" xlink:href="#aF"/><use transform="matrix(0.01193576388888889,0,0,0.01193576388888889,73.83463541666669,0)" xlink:href="#ay"/></g><path fill="#3a414a" d="M491 20c-241-1-355-148-355-398v-704h185v699c0 164 67 246 200 246 141 0 235-53 282-158v-787h185V0H812l-4-107C736-22 630 20 491 20" id="aM"/><g id="A"><use transform="matrix(0.01193576388888889,0,0,0.01193576388888889,0,0)" xlink:href="#aI"/><use transform="matrix(0.01193576388888889,0,0,0.01193576388888889,15.946180555555557,0)" xlink:href="#ar"/><use transform="matrix(0.01193576388888889,0,0,0.01193576388888889,23.990885416666668,0)" xlink:href="#aG"/><use transform="matrix(0.01193576388888889,0,0,0.01193576388888889,36.78602430555556,0)" xlink:href="#aH"/><use transform="matrix(0.01193576388888889,0,0,0.01193576388888889,50.24956597222223,0)" xlink:href="#au"/><use transform="matrix(0.01193576388888889,0,0,0.01193576388888889,56.18164062500001,0)" xlink:href="#aF"/><use transform="matrix(0.01193576388888889,0,0,0.01193576388888889,64.16666666666667,0)" xlink:href="#aw"/><use transform="matrix(0.01193576388888889,0,0,0.01193576388888889,77.11697048611111,0)" xlink:href="#aG"/><use transform="matrix(0.01193576388888889,0,0,0.01193576388888889,89.912109375,0)" xlink:href="#aF"/><use transform="matrix(0.01193576388888889,0,0,0.01193576388888889,97.89713541666667,0)" xlink:href="#aM"/><use transform="matrix(0.01193576388888889,0,0,0.01193576388888889,111.37261284722223,0)" xlink:href="#ar"/><use transform="matrix(0.01193576388888889,0,0,0.01193576388888889,119.41731770833334,0)" xlink:href="#aw"/></g><path fill="#3a414a" d="M1222-777c17 480-206 763-650 777H169v-1456h411c408 9 627 269 642 679zm-190 4c3-312-149-522-447-525H361v1141h202c308 0 473-209 469-531v-85" id="aN"/><path fill="#3a414a" d="M1240-945c-141 0-250 95-250 227V0H804v-709c0-157-77-236-231-236-121 0-204 52-249 155V0H139v-1082h175l5 120c79-93 186-140 321-140 151 0 254 58 309 174 69-98 181-174 345-174 237 0 362 126 362 377V0h-185v-714c-2-159-67-231-231-231" id="aO"/><g id="B"><use transform="matrix(0.01193576388888889,0,0,0.01193576388888889,0,0)" xlink:href="#aN"/><use transform="matrix(0.01193576388888889,0,0,0.01193576388888889,16.02973090277778,0)" xlink:href="#au"/><use transform="matrix(0.01193576388888889,0,0,0.01193576388888889,21.961805555555557,0)" xlink:href="#aE"/><use transform="matrix(0.01193576388888889,0,0,0.01193576388888889,35.25824652777778,0)" xlink:href="#aL"/><use transform="matrix(0.01193576388888889,0,0,0.01193576388888889,48.972439236111114,0)" xlink:href="#ar"/><use transform="matrix(0.01193576388888889,0,0,0.01193576388888889,56.76649305555556,0)" xlink:href="#aE"/><use transform="matrix(0.01193576388888889,0,0,0.01193576388888889,70.06293402777779,0)" xlink:href="#aO"/></g><g id="C"><use transform="matrix(0.008680555555555556,0,0,0.008680555555555556,0,0)" xlink:href="#M"/><use transform="matrix(0.008680555555555556,0,0,0.008680555555555556,11.597222222222223,0)" xlink:href="#F"/><use transform="matrix(0.008680555555555556,0,0,0.008680555555555556,21.397569444444446,0)" xlink:href="#J"/><use transform="matrix(0.008680555555555556,0,0,0.008680555555555556,27.20486111111111,0)" xlink:href="#ab"/><use transform="matrix(0.008680555555555556,0,0,0.008680555555555556,36.996527777777786,0)" xlink:href="#K"/><use transform="matrix(0.008680555555555556,0,0,0.008680555555555556,46.414930555555564,0)" xlink:href="#W"/><use transform="matrix(0.008680555555555556,0,0,0.008680555555555556,56.22395833333334,0)" xlink:href="#J"/><use transform="matrix(0.008680555555555556,0,0,0.008680555555555556,62.03125000000001,0)" xlink:href="#Q"/><use transform="matrix(0.008680555555555556,0,0,0.008680555555555556,66.34548611111111,0)" xlink:href="#aa"/><use transform="matrix(0.008680555555555556,0,0,0.008680555555555556,75.65104166666667,0)" xlink:href="#Z"/><use transform="matrix(0.008680555555555556,0,0,0.008680555555555556,85.32118055555556,0)" xlink:href="#J"/><use transform="matrix(0.008680555555555556,0,0,0.008680555555555556,91.12847222222223,0)" xlink:href="#K"/><use transform="matrix(0.008680555555555556,0,0,0.008680555555555556,100.546875,0)" xlink:href="#L"/></g><path d="M524 20C238 18 95-240 95-550c0-307 146-552 431-552 128 0 229 43 303 129l8-109h170V416H822v-516C747-20 648 20 524 20zm48-970c-208 0-292 182-292 421 0 219 92 398 290 398 110 0 194-49 252-146v-530c-59-95-142-143-250-143" id="aP"/><g id="D"><use transform="matrix(0.008680555555555556,0,0,0.008680555555555556,0,0)" xlink:href="#af"/><use transform="matrix(0.008680555555555556,0,0,0.008680555555555556,10.946180555555555,0)" xlink:href="#K"/><use transform="matrix(0.008680555555555556,0,0,0.008680555555555556,20.364583333333336,0)" xlink:href="#aP"/><use transform="matrix(0.008680555555555556,0,0,0.008680555555555556,30.468750000000004,0)" xlink:href="#F"/><use transform="matrix(0.008680555555555556,0,0,0.008680555555555556,40.26909722222223,0)" xlink:href="#K"/><use transform="matrix(0.008680555555555556,0,0,0.008680555555555556,49.68750000000001,0)" xlink:href="#R"/><use transform="matrix(0.008680555555555556,0,0,0.008680555555555556,58.85416666666667,0)" xlink:href="#J"/></g></defs></g></svg>