<svg xmlns="http://www.w3.org/2000/svg" xmlns:xlink="http://www.w3.org/1999/xlink" xmlns:lucid="lucid" width="1003" height="1580"><g transform="translate(-1458.5 80)" lucid:page-tab-id="0_0"><path d="M1000-500h1500v2000H1000z" fill="#fff"/><path d="M1965 270h10.42m10.4 0h20.85m10.4 0h20.85m10.4 0h20.85m10.42 0h20.82m10.42 0h20.83m10.42 0h10.4l.8.06.75.2.72.3.67.4.6.5.5.6.42.67.3.72.18.77.06.78v10.57m0 10.56v21.14m0 10.56v21.14m0 10.56v21.14m0 10.56v21.14m0 10.56v10.57l.07.78.18.77.3.72.4.67.52.6.6.5.66.4.73.3.76.2.78.06h10.84m10.83 0h21.67m10.83 0h21.67m10.83 0h21.66m10.84 0h21.66m10.84 0H2325l.78.06.76.2.73.3.67.4.6.5.5.6.4.67.32.72.18.77.06.78V455m0 11.5V478" stroke="#333" fill="none"/><path d="M1965 270.48h-.5v-.96h.5zM2330.47 478.5h-.94v-.5h.94z" stroke="#333" stroke-width=".05" fill="#333"/><path d="M1860 700h120v120h-120z" fill-opacity="0"/><path d="M1879.27 760c-1.06 1.66-2.1 3.28-3.07 4.95 5.56 7.97 10.86 14.28 17.74 21.1 6.88 6.9 13.14 12.2 21.1 17.75 1.67-.96 3.3-2 4.96-3.1-8.5-5.66-15.15-11.13-22.34-18.36-7.23-7.2-12.74-13.9-18.4-22.34zM1869.85 709.85c3.78-3.37 8.16-4.93 13.2-4.57 5.94.13 10.92 1.14 16.38 3.3 5.76 2.16 10.5 4.44 15.78 7.63 1.63-1.13 3.2-2.16 4.8-3.18-6.23-3.95-11.87-6.77-18.77-9.36-15.42-5.63-27.84-4.74-35.1 2.47-10.44 10.5-7.08 31.62 6.84 53.88 1.02-1.62 2.16-3.24 3.3-4.9-11.4-19.15-14.64-37.03-6.42-45.25z" fill="#b3b3b3"/><path d="M1883.04 820c-6.48.36-12.12-1.8-16.92-6.24-14.52-14.52-2.28-49.68 27.84-79.8 13.32-13.8 27-23.16 44.88-30.24 15.36-5.64 27.84-4.8 35.04 2.4 14.52 14.64 2.4 49.68-27.84 79.92-21.6 21.48-45.6 33.96-63 33.96zm73.92-114.72c-5.88.12-10.92 1.2-16.44 3.24-16.92 6.96-30.12 15.84-42.84 29.16-27.24 27.12-39.96 60.36-27.84 72.48 12.12 12.12 45.36-.72 72.48-27.84 27.24-27.24 39.96-60.36 27.84-72.48-3.72-3.36-8.16-4.92-13.2-4.56z" fill="#5ea0ef"/><path d="M1876.24 755.08l4.9 7.56-3.92 3.65-5.94-9.13 4.96-2.1zM1962.78 753.67c-5.28-7.37-10.26-13.28-16.68-19.72-6.9-6.96-13.26-12.25-21.24-17.75-1.62.93-3.24 1.97-4.86 3 8.52 5.72 15.18 11.22 22.38 18.5 6.6 6.53 11.64 12.55 16.98 20.23l4.44 6.95c11.4 19.2 14.64 37.06 6.42 45.26-8.22 8.2-26.16 4.98-45.3-6.44-1.62 1.14-3.24 2.3-4.92 3.32 11.46 7.9 23.04 11.94 36.96 12.98 6.48.3 12.18-1.76 16.92-6.23 10.14-10.07 7.26-30.2-5.64-51.6l.06-.1-.84-1.24c-.12-.3-.3-.5-.42-.83z" fill="#b3b3b3"/><path d="M1932.87 777.24c-9.57 7.4-23.32 5.7-30.7-3.85-7.42-9.56-5.7-23.27 3.87-30.67l.22-.18c9.62-7.36 23.36-5.52 30.7 4.08 7.38 9.6 5.53 23.3-4.1 30.65" fill="url(#a)"/><path d="M1914.6 759.1c0 3.88-3.14 7.02-7.02 7.02-3.88 0-7.02-3.14-7.02-7.02 0-3.88 3.14-7.02 7.02-7.02 3.88 0 7.02 3.14 7.02 7.02z" fill="url(#b)"/><path d="M1926.98 772c0 2.54-2.04 4.58-4.57 4.58-2.5 0-4.56-2.04-4.56-4.57 0-2.5 2.05-4.56 4.57-4.56 2.54 0 4.58 2.05 4.58 4.57z" fill="url(#c)"/><path d="M1937.63 760.65c0 2.68-2.18 4.86-4.86 4.86-2.67 0-4.85-2.17-4.85-4.85 0-2.67 2.17-4.85 4.85-4.85 2.68 0 4.86 2.18 4.86 4.85z" fill="#fff"/><path d="M1900.56 770.96c.52.87 1 1.57 1.6 2.37.46.6.9 1.1 1.4 1.67.67-3.23 1.5-5.9 2.8-8.93-1.45-.25-2.62-.84-3.67-1.87-.93 2.32-1.56 4.33-2.14 6.76zM1905.16 752.47c-.97-2.57-1.5-4.85-1.78-7.6-1.13 1.22-1.97 2.34-2.82 3.77.32 2.17.75 4 1.47 6.08.85-1.08 1.84-1.8 3.13-2.25zM1912.68 763.96c-1.06 1.15-2.3 1.83-3.84 2.12 1.2 1.27 2.34 2.25 3.74 3.3 1.74 1.3 3.32 2.27 5.27 3.22-.02-.2-.04-.38-.04-.6.02-1.27.5-2.37 1.42-3.26-2.5-1.37-4.47-2.8-6.54-4.78zM1926.94 771.64v.28c0 1.25-.43 2.3-1.3 3.2 3.05.6 5.7.8 8.8.63 1.16-1.1 2.04-2.14 2.96-3.47-1.18.13-2.2.2-3.38.2-2.5 0-4.63-.26-7.08-.84zM1929.58 757.2c-3.17-2.32-5.65-4.5-8.4-7.3 4.96-2.5 9.7-3.68 15.26-3.76-1.16-1.47-2.32-2.6-3.83-3.74-4.34.3-8 1.17-12.05 2.87-.85.35-1.6.9-2.38 1.33l-.08-.06c-2.07-2.45-3.6-4.72-5.1-7.54-1.03.3-1.85.64-2.83 1.08 1.56 3 3.17 5.4 5.34 8-2.08 1.36-3.72 2.7-5.46 4.5 1.5.56 2.6 1.47 3.46 2.82 1.6-1.56 3.1-2.72 5-3.9 3.08 3.2 5.93 5.66 9.5 8.26.26-1.04.76-1.87 1.58-2.55zM1940.15 763.52l-.08-.05-.76-.4-.14-.1-.7-.37-.17-.1-.82-.46c-.3 1-.82 1.76-1.64 2.38l.96.55.22.13.9.5.08.05 2.22 1.17c.32-1 .53-1.85.7-2.87z" fill="#f2f2f2" fill-opacity=".55"/><path d="M1914.6 759.1c0 3.88-3.14 7.02-7.02 7.02-3.88 0-7.02-3.14-7.02-7.02 0-3.88 3.14-7.02 7.02-7.02 3.88 0 7.02 3.14 7.02 7.02zM1926.98 772c0 2.54-2.04 4.58-4.57 4.58-2.5 0-4.56-2.04-4.56-4.57 0-2.5 2.05-4.56 4.57-4.56 2.54 0 4.58 2.05 4.58 4.57z" fill="#fff"/><path d="M2330 567.65v11.5m0 11.5v11.5l-.06.78-.18.76-.3.72-.4.67-.52.58-.6.5-.67.42-.72.3-.77.18-.78.07h-10.83m-10.84 0h-21.66m-10.84 0h-21.66m-10.83 0h-21.67m-10.83 0h-21.67m-10.83 0h-10.84l-.78.06-.76.2-.73.3-.66.4-.6.5-.5.6-.42.68-.3.72-.18.76-.07.8v9.5m0 9.53v19.04m0 9.52v19.05m0 9.54v19.04m0 9.53v19.05m0 9.53V755l-.06.78-.18.76-.3.73-.4.67-.52.6-.6.5-.67.42-.72.3-.76.18-.8.06h-9.55m-9.56 0h-19.12m-9.56 0h-19.1m-9.56 0h-19.1m-9.57 0h-19.12m-9.56 0h-19.1m-9.56 0h-9.56" stroke="#333" fill="none"/><path d="M2330.47 567.66h-.94v-.5h.94zM1980.5 760.48h-.5v-.96h.5z" stroke="#333" stroke-width=".05" fill="#333"/><path d="M2200 488a8 8 0 0 1 8-8h244a8 8 0 0 1 8 8v69.65a8 8 0 0 1-8 8h-244a8 8 0 0 1-8-8z" stroke="#6f7681" stroke-width="3" fill="#fff"/><use xlink:href="#d" transform="matrix(1,0,0,1,2200,480) translate(15.421666666666647 51.614583333333336)"/><use xlink:href="#e" transform="matrix(1,0,0,1,2200,480) translate(89.87479166666667 51.614583333333336)"/><use xlink:href="#f" transform="matrix(1,0,0,1,2200,480) translate(147.9346875 51.614583333333336)"/><path d="M1944.92 204.6c0 13.68-11.13 24.72-24.92 24.72-13.8 0-24.92-11.04-24.92-24.72 0-13.56 11.13-24.6 24.92-24.6 13.8 0 24.92 11.04 24.92 24.6m-6.68 33.12L1920 263.04l-18.24-25.32h-26.26V300h89v-62.28z" stroke="#000" stroke-opacity="0" stroke-width="3" fill="#979ea8"/><path d="M1875.5 237.7V300h89v-62.3l-27.32-17.9 4.7-21.72-21.26-16.73-23.23 18.87 5.96 20.64z" stroke="#000" stroke-opacity="0" stroke-width="0" fill="#3e0000" fill-opacity="0"/><path d="M1875 1090.48c-5.5 0-11.5 5.48-11.5 11V1150h11.5v-22.5h11v22.5h10.98v-48.5c0-5.54-5.5-11.02-11.48-11.02H1875zm0 25.53v-15.04h11V1116h-11zM1916.48 1090c-6 0-11.48 5.52-11.48 10.98V1150h10.98v-22.5H1927c5.5 0 11.48-5.52 11.48-10.98v-15c0-5.52-5.5-11.04-11.48-11.04h-10.52v-.48zm-.5 25.98v-15H1927v15h-11.02zM1957.52 1101.5v37.5h-11.48v11H1980v-11h-11v-37.5h11v-11.02h-33.96v11h11.48z" fill="#5c85de"/><path d="M1875 1127.54v-11.5h7.5l-7.5 11.5zM1916.04 1127.54v-11.5h6.5l-6.5 11.5zM1957.56 1109.02v-7.5h11.5l-11.5 7.5z" fill="#3367d6"/><path d="M1860 1084v72h120v-72z" fill-opacity="0"/><path d="M1800 644.28a8 8 0 0 1 8-8h224a8 8 0 0 1 8 8v44a8 8 0 0 1-8 8h-224a8 8 0 0 1-8-8z" fill="none"/><use xlink:href="#g" transform="matrix(1,0,0,1,1800,636.2775974210451) translate(16.158854166666657 39.114583333333336)"/><use xlink:href="#h" transform="matrix(1,0,0,1,1800,636.2775974210451) translate(118.1640625 39.114583333333336)"/><path d="M2140 388a8 8 0 0 1 8-8h164a8 8 0 0 1 8 8v44a8 8 0 0 1-8 8h-164a8 8 0 0 1-8-8z" fill="none"/><use xlink:href="#i" transform="matrix(1,0,0,1,2140,380) translate(26.15993923611112 37.595486111111114)"/><use xlink:href="#j" transform="matrix(1,0,0,1,2140,380) translate(101.083984375 37.595486111111114)"/><path d="M1800 128a8 8 0 0 1 8-8h224a8 8 0 0 1 8 8v44a8 8 0 0 1-8 8h-224a8 8 0 0 1-8-8z" fill="none"/><use xlink:href="#k" transform="matrix(1,0,0,1,1800,120) translate(41.90104166666666 39.114583333333336)"/><use xlink:href="#l" transform="matrix(1,0,0,1,1800,120) translate(143.90625 39.114583333333336)"/><path d="M1460 908a8 8 0 0 1 8-8h244a8 8 0 0 1 8 8v69.65a8 8 0 0 1-8 8h-244a8 8 0 0 1-8-8z" stroke="#6f7681" stroke-width="3" fill="#fff"/><use xlink:href="#m" transform="matrix(1,0,0,1,1460,900) translate(11.795364583333319 51.614583333333336)"/><use xlink:href="#e" transform="matrix(1,0,0,1,1460,900) translate(93.50109375 51.614583333333336)"/><use xlink:href="#f" transform="matrix(1,0,0,1,1460,900) translate(151.56098958333334 51.614583333333336)"/><path d="M1876.5 1320h91v120h-91z" fill-opacity="0"/><path d="M1922 1352.7c-25.12 0-45.5-7.05-45.5-16.38v87.3c0 8.92 20.02 16.28 44.86 16.38h.64c25.12 0 45.5-7.05 45.5-16.38v-87.3c0 9.02-20.38 16.38-45.5 16.38z" fill="url(#n)"/><path d="M1967.5 1336.38c0 9.04-20.38 16.38-45.5 16.38s-45.5-7.08-45.5-16.38c0-9.3 20.38-16.38 45.5-16.38s45.5 7.08 45.5 16.38" fill="#e8e8e8"/><path d="M1956.85 1335.05c0 5.8-15.63 10.5-34.83 10.5-19.26 0-34.96-4.7-34.96-10.4 0-5.75 15.63-10.5 34.96-10.5 19.27 0 34.83 4.68 34.83 10.4" fill="#50e6ff"/><path d="M1922.06 1337.7c-9.9-.26-18.32.96-27.72 4 9.4 3 17.8 4.15 27.72 3.82 9.84.23 18.25-1 27.6-4.1-9.4-2.9-17.76-4.03-27.6-3.73z" fill="#198ab3"/><path d="M1943.3 1380.1v2.94c-.3 1.54-.5 2.88-.55 4.42 0 .84 0 2.12.37 3.27.3 1.15 0 1.92 0 2.56-.07 2.24-.62 4.16-1.78 6.02-.06.2-.06.32 0 .5l.67.84c3.38-5.5 5.65-10.57 7.56-16.8 1.96-6.7 2.2-11.52.6-13.57-4.65-5.7-11.83-8.02-19-6.03 2.57 1.2 4.53 2.7 6.43 4.67 3.5 2.95 5.4 6.67 5.7 11.15zm-2.2.5c-1.97-.44-3.8-.25-5.6.65-2.08 1.28-1.4 3.9 0 7.05.75 2.17 1.48 3.97 2.46 6.02l.68 1.15c.3.58.55 1.03.73 1.4l.62.9c.85-1.46 1.2-2.88 1.2-4.54.08-.83.08-1.54 0-2.37 0-1.22 0-2.56-.3-3.46.07-1.73.25-3.14.56-4.87-.25-.77-.12-1.54-.06-2.12zm-2.16 2.95c-.36.32-.73.58-1.22.7-.37.07-.68.07-1.05 0-.36-.38-.55-.83-.5-1.34 0-.5.8-.95 1.73-1.08h1.35s.68 0 .68.58c-.13.38-.3.7-.68.9zm-33.24 6.28v-1.22c.06-.43.06-.75 0-1.2-.24-2.44-.24-4.55 0-7.05.43-2.82 1.1-5.13 2.15-7.75.86-2.63 2.14-4.68 4.1-6.67-3.3-.96-6.2-1.4-9.56-1.4-2.9-.14-5.4.57-7.86 2.1-3.68 3.34-5.28 7.95-4.42 12.9.68 5.63 1.78 10.37 3.5 15.8 2.45 8.02 5.2 12.96 7.6 13.8 1.1.3 2.2 0 3.38-1.55 1.96-2.37 3.8-4.42 4.84-5.64-3.3-3.33-4.54-7.75-3.43-12.36zm1.84 2.82c0 1.4.12 2.57.43 3.9.43 1.23 1.04 2.2 1.84 3.15.75.77 1.54 1.35 2.53 1.8.9.32 1.7.5 2.76.5 0-1.14.97-2.68 1.58-4.22.67-1.4 1.1-2.63 1.53-4.17.2-2.74.2-5.05 0-7.8 0-.64 0-1.35-.42-2.12-.06-.77-.36-1.4-.86-1.92-.6-.58-1.22-.9-2.02-1.15h-1.4c-1.24.2-2.28.45-3.38 1.03-.86.38-1.54.77-2.27 1.35v8.9zm4.66-9.48c.68-.2 1.35-.2 2.03 0 .5.06.92.2 1.35.45.6 0 .67.77.6.96-.17.38-.48.7-.85.9-.12-.07-.24-.13-.43-.26-1.04-.2-1.78-.96-1.96-2zm5.28 21.2c-.37 0-.68.14-.92.4l-.98 1.2c-1.23 1.48-1.72 2-5.22 2.7-.67.07-1.22.26-1.84.7.56.4 1.05.65 1.72.78 1.72.57 3.37.57 5.1 0 1.1-.52 1.9-1.03 2.75-1.86.73-.6 1.22-1.3 1.46-2.2.06-.76-.18-1.4-.73-1.98-.3-.2-.68-.25-1.05-.13zm32.7 0c-2.7.97-5.3.97-8 0-.35-.12-.66-.12-1.03 0-.5.14-.92.46-1.16.97-.14.77-.14 1.4 0 2.18 2.7.64 5.2.38 7.78-.7 1.35-.58 2.4-1.3 3.37-2.38zm-17-15.1c-1.04-2.9-2.46-7.06 1.22-9.63 2.03-1.1 4.12-1.47 6.32-1.1v.02c-.98-3.14-2.33-5.64-4.54-8.08l-.67-.7-.42-.45c-.12-.2-.24-.32-.43-.45-1.47-1.28-2.94-2.18-4.78-2.95-2.58-1.15-5.03-1.6-7.85-1.54-1.78-.13-3.32.06-4.97.76-.74.2-1.4.45-2.15.77-2.5 1.86-4.17 4.1-5.2 7.05-.75 2.43-1.24 4.55-1.48 7.1 2.2-1.33 4.47-1.85 7.05-1.65 3.3.25 5.77 3.14 5.46 6.4.3 3.2.3 5.84 0 8.98-.43 1.67-.92 2.95-1.6 4.5-.43 1.2-1.04 2.43-1.3 3.45h.02c1.04-.06 1.96.26 2.7.96.98 1.04 1.47 2.32 1.34 3.8h.12v1.66c-.56 6.1-.07 11.34 1.7 17.24.44.7 1 1.15 1.73 1.47.67.45 1.35.7 2.15.7 2.7.26 5.15-.57 7.1-2.37 1.3-1.34 1.97-2.82 2.1-4.67.5-3.14 1.53-12 1.65-14.1-.12-1.15.13-2.12.68-3.14.5-.78 1.1-1.3 1.9-1.68-3.5-3.9-5.83-7.8-7.6-12.8z" fill="#f2f2f2"/><path d="M1802 1448a8 8 0 0 1 8-8h224a8 8 0 0 1 8 8v44a8 8 0 0 1-8 8h-224a8 8 0 0 1-8-8z" fill="none"/><use xlink:href="#o" transform="matrix(1,0,0,1,1802,1440) translate(63.72395833333333 39.114583333333336)"/><path d="M1922 1157v144.5" stroke="#3a414a" stroke-width="2" fill="none"/><path d="M1922.97 1157.03h-1.94V1156h1.94z" stroke="#3a414a" stroke-width=".05" fill="#3a414a"/><path d="M1922 1316.76l-4.63-14.26h9.27z" stroke="#3a414a" stroke-width="2" fill="#3a414a"/><path d="M1590 987.65v10.6m0 10.62v21.23m0 10.6v21.24m0 10.6v21.23m0 10.62v10.6l.06.78.18.77.3.72.4.67.52.6.6.5.67.4.72.32.77.18.78.06h9.8m9.8 0h19.6m9.78 0h19.6m9.8 0h19.58m9.8 0h19.6m9.8 0h19.58m9.8 0h19.6m9.8 0h19.58m9.8 0h19.6m9.78 0h9.8" stroke="#333" fill="none"/><path d="M1590.47 987.66h-.94v-.5h.94zM1860 1120.47h-.5v-.94h.5z" stroke="#333" stroke-width=".05" fill="#333"/><path d="M1590 898v-11.08m0-11.1v-22.15m0-11.1v-22.15m0-11.1v-22.15m0-11.1V765l.06-.78.18-.76.3-.73.4-.67.52-.6.6-.5.67-.42.72-.3.77-.18.78-.06h9.8m9.8 0h19.6m9.78 0h19.6m9.8 0h19.58m9.8 0h19.6m9.8 0h19.58m9.8 0h19.6m9.8 0h19.58m9.8 0h19.6m9.78 0h9.8" stroke="#333" fill="none"/><path d="M1590.47 898.5h-.94v-.5h.94zM1860 760.48h-.5v-.96h.5z" stroke="#333" stroke-width=".05" fill="#333"/><path d="M1580 1068a8 8 0 0 1 8-8h164a8 8 0 0 1 8 8v44a8 8 0 0 1-8 8h-164a8 8 0 0 1-8-8z" fill="none"/><g><use xlink:href="#i" transform="matrix(1,0,0,1,1580,1060) translate(26.15993923611112 37.595486111111114)"/><use xlink:href="#j" transform="matrix(1,0,0,1,1580,1060) translate(101.083984375 37.595486111111114)"/></g><path d="M1751-72a8 8 0 0 1 8-8h322a8 8 0 0 1 8 8v64a8 8 0 0 1-8 8h-322a8 8 0 0 1-8-8z" fill="none"/><g><use xlink:href="#p" transform="matrix(1,0,0,1,1751,-80) translate(10.576605902777771 24.00607638888889)"/><use xlink:href="#q" transform="matrix(1,0,0,1,1751,-80) translate(124.58702256944444 24.00607638888889)"/><use xlink:href="#r" transform="matrix(1,0,0,1,1751,-80) translate(153.23285590277777 24.00607638888889)"/><use xlink:href="#s" transform="matrix(1,0,0,1,1751,-80) translate(240.98459201388889 24.00607638888889)"/><use xlink:href="#t" transform="matrix(1,0,0,1,1751,-80) translate(54.0466579861111 72.70399305555556)"/><use xlink:href="#u" transform="matrix(1,0,0,1,1751,-80) translate(192.46571180555554 72.70399305555556)"/></g><defs><radialGradient gradientUnits="userSpaceOnUse" id="a" fx="1919.44" fy="759.96" cx="1919.44" cy="759.96" r="21.85"><stop offset="18.3%" stop-color="#5ea0ef"/><stop offset="100%" stop-color="#0078d4"/></radialGradient><linearGradient gradientUnits="userSpaceOnUse" id="b" x1="1907.64" y1="766.31" x2="1907.56" y2="756.13"><stop offset="0%" stop-color="#ccc"/><stop offset="12.3%" stop-color="#d7d7d7"/><stop offset="100%" stop-color="#fcfcfc"/></linearGradient><linearGradient gradientUnits="userSpaceOnUse" id="c" x1="1922.41" y1="776.58" x2="1922.41" y2="767.44"><stop offset="0%" stop-color="#ccc"/><stop offset="12.3%" stop-color="#d7d7d7"/><stop offset="100%" stop-color="#fcfcfc"/></linearGradient><path fill="#3a414a" d="M688-137c238 0 323-102 359-325h193c-32 297-228 482-552 482-361 0-569-299-569-680 0-197 8-360 73-497 88-186 257-317 513-319 316-2 509 195 535 488h-193c-31-212-118-330-342-330-272 0-397 224-393 523v141c-3 282 115 517 376 517" id="v"/><path fill="#3a414a" d="M341 0H156v-1536h185V0" id="w"/><path fill="#3a414a" d="M341 0H156v-1082h185V0zm-91-1264c-68 0-108-42-109-105 0-62 41-107 109-107s110 44 110 107-42 105-110 105" id="x"/><path fill="#3a414a" d="M599-131c141 0 220-65 285-146l113 88C906-50 770 20 589 20 281 21 93-214 93-545c0-223 93-397 233-485 74-48 154-72 240-72 300 2 449 218 445 537v77H278c0 197 129 357 321 357zm227-509c-3-180-88-310-260-310-170 0-264 140-282 310h542" id="y"/><path fill="#3a414a" d="M589-945c-131 0-219 81-264 174V0H140v-1082h175l6 136c83-104 191-156 324-156 229 0 346 129 346 387V0H806v-716c-2-153-65-229-217-229" id="z"/><path fill="#3a414a" d="M456 20C285 20 205-92 206-268v-671H9v-143h197v-262h185v262h202v143H391v671c-9 125 92 149 207 118V0c-49 13-96 20-142 20" id="A"/><g id="d"><use transform="matrix(0.013020833333333334,0,0,0.013020833333333334,0,0)" xlink:href="#v"/><use transform="matrix(0.013020833333333334,0,0,0.013020833333333334,17.356770833333336,0)" xlink:href="#w"/><use transform="matrix(0.013020833333333334,0,0,0.013020833333333334,23.828125000000004,0)" xlink:href="#x"/><use transform="matrix(0.013020833333333334,0,0,0.013020833333333334,30.299479166666675,0)" xlink:href="#y"/><use transform="matrix(0.013020833333333334,0,0,0.013020833333333334,44.42708333333334,0)" xlink:href="#z"/><use transform="matrix(0.013020833333333334,0,0,0.013020833333333334,59.140625000000014,0)" xlink:href="#A"/></g><path fill="#3a414a" d="M631-137c179 0 314-70 314-231 0-71-25-127-75-166s-141-77-272-115c-165-47-285-106-360-175s-112-154-112-255c0-245 231-397 495-397 206 0 369 89 449 218 43 68 65 142 65 223H942c0-184-129-283-321-283-172 0-299 76-301 236 0 59 26 109 76 150s135 78 256 113c205 59 345 116 436 256 35 53 50 119 50 193-2 256-231 398-507 390C333 12 90-129 80-422h193c0 187 160 285 358 285" id="B"/><path fill="#3a414a" d="M520 20C244 20 95-247 95-550c0-298 151-550 427-552 127 0 227 43 301 130v-564h185V0H838l-9-116C755-25 652 20 520 20zm48-965c-210 0-288 177-288 416 0 218 87 392 286 392 117 0 203-53 257-158v-497c-55-102-140-153-255-153" id="C"/><g id="e"><use transform="matrix(0.013020833333333334,0,0,0.013020833333333334,0,0)" xlink:href="#B"/><use transform="matrix(0.013020833333333334,0,0,0.013020833333333334,15.8203125,0)" xlink:href="#x"/><use transform="matrix(0.013020833333333334,0,0,0.013020833333333334,22.291666666666668,0)" xlink:href="#C"/><use transform="matrix(0.013020833333333334,0,0,0.013020833333333334,37.33072916666667,0)" xlink:href="#y"/></g><path fill="#3a414a" d="M561-1102c238-4 403 126 403 351v498c0 99 13 178 38 237V0H808c-11-21-19-59-26-114C696-25 593 20 474 20c-199 0-368-130-365-320 4-251 214-359 490-356h180v-85c-1-135-86-212-229-212-115 0-232 67-233 171H131c20-205 206-316 430-320zM294-326c0 117 90 185 207 185 122 0 239-75 278-162v-222H634c-227 0-340 66-340 199" id="D"/><path fill="#3a414a" d="M277-555c0 244 77 420 297 424 127 2 249-93 255-210h175C980-127 805 20 574 20 258 20 81-222 92-562c11-319 164-533 481-540 237-5 426 165 431 392H829c-7-133-115-242-256-240-209 4-296 166-296 395" id="E"/><path fill="#3a414a" d="M589-945c-131 0-219 81-264 174V0H140v-1536h185v585c82-101 189-151 320-151 229 0 346 129 346 387V0H806v-716c-2-153-65-229-217-229" id="F"/><path fill="#3a414a" d="M521 20C240 20 96-239 96-550c0-303 147-552 427-552 132 0 235 47 309 140l9-120h169V-26c4 277-183 454-459 452-165-1-334-81-400-187l96-111c79 98 176 147 291 147 180 1 288-109 286-290v-93C750-23 649 20 521 20zm48-965c-209 0-287 178-287 416 0 217 86 392 285 392 117 0 202-53 257-159v-494c-57-103-142-155-255-155" id="G"/><g id="f"><use transform="matrix(0.013020833333333334,0,0,0.013020833333333334,0,0)" xlink:href="#v"/><use transform="matrix(0.013020833333333334,0,0,0.013020833333333334,17.356770833333336,0)" xlink:href="#D"/><use transform="matrix(0.013020833333333334,0,0,0.013020833333333334,31.861979166666675,0)" xlink:href="#E"/><use transform="matrix(0.013020833333333334,0,0,0.013020833333333334,45.82031250000001,0)" xlink:href="#F"/><use transform="matrix(0.013020833333333334,0,0,0.013020833333333334,60.5078125,0)" xlink:href="#x"/><use transform="matrix(0.013020833333333334,0,0,0.013020833333333334,66.97916666666667,0)" xlink:href="#z"/><use transform="matrix(0.013020833333333334,0,0,0.013020833333333334,81.69270833333334,0)" xlink:href="#G"/></g><path d="M483-459l28 192 41-173 288-1016h162l281 1016 40 176 31-196 226-996h193L1420 0h-175L945-1061l-23-111-23 111L588 0H413L61-1456h192" id="H"/><path d="M599-131c141 0 220-65 285-146l113 88C906-50 770 20 589 20 281 21 93-214 93-545c0-223 93-397 233-485 74-48 154-72 240-72 300 2 449 218 445 537v77H278c0 197 129 357 321 357zm227-509c-3-180-88-310-260-310-170 0-264 140-282 310h542" id="I"/><path d="M634-1102c292 0 422 254 422 573 0 298-143 547-420 549-137 0-242-48-317-145L310 0H140v-1536h185v573c75-93 178-139 309-139zm-44 965c207 0 281-175 281-413 0-224-79-395-283-395-122 0-210 57-263 170v468c57 113 145 170 265 170" id="J"/><path d="M538-131c121 0 232-49 232-156 0-50-20-88-56-117-73-60-334-92-420-143-92-55-162-110-162-238 0-190 192-317 400-317 223 0 414 129 413 338H759c0-108-110-186-227-186-119 0-215 53-215 159 0 45 18 78 53 101 76 52 331 90 416 139 98 57 169 115 169 251C955-92 760 20 538 20c-176 0-314-68-386-174-38-55-57-115-57-179h185c6 129 116 202 258 202" id="K"/><path d="M341 0H156v-1082h185V0zm-91-1264c-68 0-108-42-109-105 0-62 41-107 109-107s110 44 110 107-42 105-110 105" id="L"/><path d="M456 20C285 20 205-92 206-268v-671H9v-143h197v-262h185v262h202v143H391v671c-9 125 92 149 207 118V0c-49 13-96 20-142 20" id="M"/><g id="g"><use transform="matrix(0.013020833333333334,0,0,0.013020833333333334,0,0)" xlink:href="#H"/><use transform="matrix(0.013020833333333334,0,0,0.013020833333333334,23.255208333333336,0)" xlink:href="#I"/><use transform="matrix(0.013020833333333334,0,0,0.013020833333333334,37.3828125,0)" xlink:href="#J"/><use transform="matrix(0.013020833333333334,0,0,0.013020833333333334,52.34375,0)" xlink:href="#K"/><use transform="matrix(0.013020833333333334,0,0,0.013020833333333334,66.09375,0)" xlink:href="#L"/><use transform="matrix(0.013020833333333334,0,0,0.013020833333333334,72.56510416666667,0)" xlink:href="#M"/><use transform="matrix(0.013020833333333334,0,0,0.013020833333333334,81.27604166666667,0)" xlink:href="#I"/></g><path d="M972-643H361V0H169v-1456h902v158H361v498h611v157" id="N"/><path d="M663-916c-163-27-288 18-338 148V0H140v-1082h180l3 125c61-97 147-145 258-145 36 0 63 5 82 14v172" id="O"/><path d="M584 20C278 26 81-227 91-551c10-320 175-545 491-551 308-5 503 247 494 573-9 322-175 543-492 549zm-2-970c-208 0-305 185-305 421 0 216 106 398 307 398 211 0 307-186 307-420 0-214-109-399-309-399" id="P"/><path d="M589-945c-131 0-219 81-264 174V0H140v-1082h175l6 136c83-104 191-156 324-156 229 0 346 129 346 387V0H806v-716c-2-153-65-229-217-229" id="Q"/><path d="M520 20C244 20 95-247 95-550c0-298 151-550 427-552 127 0 227 43 301 130v-564h185V0H838l-9-116C755-25 652 20 520 20zm48-965c-210 0-288 177-288 416 0 218 87 392 286 392 117 0 203-53 257-158v-497c-55-102-140-153-255-153" id="R"/><g id="h"><use transform="matrix(0.013020833333333334,0,0,0.013020833333333334,0,0)" xlink:href="#N"/><use transform="matrix(0.013020833333333334,0,0,0.013020833333333334,14.401041666666668,0)" xlink:href="#O"/><use transform="matrix(0.013020833333333334,0,0,0.013020833333333334,23.1640625,0)" xlink:href="#P"/><use transform="matrix(0.013020833333333334,0,0,0.013020833333333334,38.372395833333336,0)" xlink:href="#Q"/><use transform="matrix(0.013020833333333334,0,0,0.013020833333333334,53.0859375,0)" xlink:href="#M"/><use transform="matrix(0.013020833333333334,0,0,0.013020833333333334,61.796875,0)" xlink:href="#I"/><use transform="matrix(0.013020833333333334,0,0,0.013020833333333334,75.92447916666667,0)" xlink:href="#Q"/><use transform="matrix(0.013020833333333334,0,0,0.013020833333333334,90.63802083333334,0)" xlink:href="#R"/></g><path d="M1288 0h-193v-673H361V0H169v-1456h192v626h734v-626h193V0" id="S"/><path d="M1175-1298H707V0H516v-1298H49v-158h1126v158" id="T"/><path d="M1216-1011c-1 297-202 441-512 441H361V0H169v-1456h537c297-6 510 164 510 445zm-192 2c1-178-126-288-307-289H361v571h345c196 1 318-92 318-282" id="U"/><path d="M631-137c179 0 314-70 314-231 0-71-25-127-75-166s-141-77-272-115c-165-47-285-106-360-175s-112-154-112-255c0-245 231-397 495-397 206 0 369 89 449 218 43 68 65 142 65 223H942c0-184-129-283-321-283-172 0-299 76-301 236 0 59 26 109 76 150s135 78 256 113c205 59 345 116 436 256 35 53 50 119 50 193-2 256-231 398-507 390C333 12 90-129 80-422h193c0 187 160 285 358 285" id="V"/><g id="i"><use transform="matrix(0.010850694444444444,0,0,0.010850694444444444,0,0)" xlink:href="#S"/><use transform="matrix(0.010850694444444444,0,0,0.010850694444444444,15.52734375,0)" xlink:href="#T"/><use transform="matrix(0.010850694444444444,0,0,0.010850694444444444,28.96050347222222,0)" xlink:href="#T"/><use transform="matrix(0.010850694444444444,0,0,0.010850694444444444,42.22005208333333,0)" xlink:href="#U"/><use transform="matrix(0.010850694444444444,0,0,0.010850694444444444,56.23914930555555,0)" xlink:href="#V"/></g><path d="M319-664C304-226 428 158 661 357l-38 113c-89-49-172-133-254-248C142-97 71-578 194-1025c67-244 240-513 429-618l38 122c-201 153-330 502-342 857" id="W"/><path d="M902-489h202v151H902V0H716v-338H53v-109l652-1009h197v967zm-639 0h453v-714l-22 40" id="X"/><path d="M832-402c-1-179-119-264-303-265H390v-151h139c164 0 281-91 281-250 0-171-85-256-255-256-154 0-265 99-263 250H107c-4-235 205-402 448-402 266 0 444 150 440 412-2 148-109 272-229 317 147 45 249 158 251 341 3 262-197 426-461 426C299 20 91-135 94-384h186c-2 156 116 253 276 253 176 0 277-96 276-271" id="Y"/><path d="M38 357C331 141 457-487 337-984c-53-219-157-429-299-546l39-113c190 106 362 378 431 621 75 268 76 597 0 868C440 88 266 365 77 470" id="Z"/><g id="j"><use transform="matrix(0.010850694444444444,0,0,0.010850694444444444,0,0)" xlink:href="#W"/><use transform="matrix(0.010850694444444444,0,0,0.010850694444444444,7.595486111111111,0)" xlink:href="#X"/><use transform="matrix(0.010850694444444444,0,0,0.010850694444444444,20.07378472222222,0)" xlink:href="#X"/><use transform="matrix(0.010850694444444444,0,0,0.010850694444444444,32.55208333333333,0)" xlink:href="#Y"/><use transform="matrix(0.010850694444444444,0,0,0.010850694444444444,45.03038194444444,0)" xlink:href="#Z"/></g><g id="k"><use transform="matrix(0.013020833333333334,0,0,0.013020833333333334,0,0)" xlink:href="#H"/><use transform="matrix(0.013020833333333334,0,0,0.013020833333333334,23.255208333333336,0)" xlink:href="#I"/><use transform="matrix(0.013020833333333334,0,0,0.013020833333333334,37.3828125,0)" xlink:href="#J"/><use transform="matrix(0.013020833333333334,0,0,0.013020833333333334,52.34375,0)" xlink:href="#K"/><use transform="matrix(0.013020833333333334,0,0,0.013020833333333334,66.09375,0)" xlink:href="#L"/><use transform="matrix(0.013020833333333334,0,0,0.013020833333333334,72.56510416666667,0)" xlink:href="#M"/><use transform="matrix(0.013020833333333334,0,0,0.013020833333333334,81.27604166666667,0)" xlink:href="#I"/></g><path d="M665-137c214 0 337-121 336-332v-987h193v990c-3 300-218 486-529 486-309 0-526-181-525-484v-992h190v986c-1 210 123 333 335 333" id="aa"/><g id="l"><use transform="matrix(0.013020833333333334,0,0,0.013020833333333334,0,0)" xlink:href="#aa"/><use transform="matrix(0.013020833333333334,0,0,0.013020833333333334,17.291666666666668,0)" xlink:href="#K"/><use transform="matrix(0.013020833333333334,0,0,0.013020833333333334,31.041666666666668,0)" xlink:href="#I"/><use transform="matrix(0.013020833333333334,0,0,0.013020833333333334,45.169270833333336,0)" xlink:href="#O"/></g><path fill="#3a414a" d="M663-916c-163-27-288 18-338 148V0H140v-1082h180l3 125c61-97 147-145 258-145 36 0 63 5 82 14v172" id="ab"/><path fill="#3a414a" d="M497-251l268-831h189L566 0H425L33-1082h189" id="ac"/><g id="m"><use transform="matrix(0.013020833333333334,0,0,0.013020833333333334,0,0)" xlink:href="#B"/><use transform="matrix(0.013020833333333334,0,0,0.013020833333333334,15.8203125,0)" xlink:href="#y"/><use transform="matrix(0.013020833333333334,0,0,0.013020833333333334,29.947916666666668,0)" xlink:href="#ab"/><use transform="matrix(0.013020833333333334,0,0,0.013020833333333334,39.20572916666667,0)" xlink:href="#ac"/><use transform="matrix(0.013020833333333334,0,0,0.013020833333333334,51.953125,0)" xlink:href="#y"/><use transform="matrix(0.013020833333333334,0,0,0.013020833333333334,66.08072916666667,0)" xlink:href="#ab"/></g><linearGradient gradientUnits="userSpaceOnUse" id="n" x1="1876.44" y1="1388.23" x2="1967.51" y2="1388.21"><stop offset="0%" stop-color="#005ba1"/><stop offset="7%" stop-color="#0060a9"/><stop offset="36%" stop-color="#0071c8"/><stop offset="52%" stop-color="#0078d4"/><stop offset="64%" stop-color="#0074cd"/><stop offset="82%" stop-color="#006abb"/><stop offset="100%" stop-color="#005ba1"/></linearGradient><path d="M1222-777c17 480-206 763-650 777H169v-1456h411c408 9 627 269 642 679zm-190 4c3-312-149-522-447-525H361v1141h202c308 0 473-209 469-531v-85" id="ad"/><path d="M561-1102c238-4 403 126 403 351v498c0 99 13 178 38 237V0H808c-11-21-19-59-26-114C696-25 593 20 474 20c-199 0-368-130-365-320 4-251 214-359 490-356h180v-85c-1-135-86-212-229-212-115 0-232 67-233 171H131c20-205 206-316 430-320zM294-326c0 117 90 185 207 185 122 0 239-75 278-162v-222H634c-227 0-340 66-340 199" id="ae"/><g id="o"><use transform="matrix(0.013020833333333334,0,0,0.013020833333333334,0,0)" xlink:href="#ad"/><use transform="matrix(0.013020833333333334,0,0,0.013020833333333334,17.486979166666668,0)" xlink:href="#ae"/><use transform="matrix(0.013020833333333334,0,0,0.013020833333333334,31.9921875,0)" xlink:href="#M"/><use transform="matrix(0.013020833333333334,0,0,0.013020833333333334,40.703125,0)" xlink:href="#ae"/><use transform="matrix(0.013020833333333334,0,0,0.013020833333333334,55.208333333333336,0)" xlink:href="#J"/><use transform="matrix(0.013020833333333334,0,0,0.013020833333333334,70.16927083333334,0)" xlink:href="#ae"/><use transform="matrix(0.013020833333333334,0,0,0.013020833333333334,84.67447916666667,0)" xlink:href="#K"/><use transform="matrix(0.013020833333333334,0,0,0.013020833333333334,98.42447916666667,0)" xlink:href="#I"/></g><path fill="#3a414a" d="M1161-1018c0 201-122 330-278 388l342 618V0h-206L703-589H361V0H168v-1456h482c310-2 511 139 511 438zm-193 0c0-187-120-280-313-280H361v552h295c179 3 313-101 312-272" id="af"/><g id="p"><use transform="matrix(0.01193576388888889,0,0,0.01193576388888889,0,0)" xlink:href="#af"/><use transform="matrix(0.01193576388888889,0,0,0.01193576388888889,15.05099826388889,0)" xlink:href="#y"/><use transform="matrix(0.01193576388888889,0,0,0.01193576388888889,28.001302083333336,0)" xlink:href="#A"/><use transform="matrix(0.01193576388888889,0,0,0.01193576388888889,35.986328125,0)" xlink:href="#ab"/><use transform="matrix(0.01193576388888889,0,0,0.01193576388888889,44.2578125,0)" xlink:href="#x"/><use transform="matrix(0.01193576388888889,0,0,0.01193576388888889,50.18988715277778,0)" xlink:href="#y"/><use transform="matrix(0.01193576388888889,0,0,0.01193576388888889,62.985026041666664,0)" xlink:href="#ac"/><use transform="matrix(0.01193576388888889,0,0,0.01193576388888889,74.82530381944444,0)" xlink:href="#x"/><use transform="matrix(0.01193576388888889,0,0,0.01193576388888889,80.75737847222223,0)" xlink:href="#z"/><use transform="matrix(0.01193576388888889,0,0,0.01193576388888889,94.24479166666667,0)" xlink:href="#G"/></g><path fill="#3a414a" d="M973-380H363L226 0H28l556-1456h168L1309 0h-197zM421-538h495l-248-681" id="ag"/><path fill="#3a414a" d="M375 0H183v-1456h192V0" id="ah"/><g id="q"><use transform="matrix(0.01193576388888889,0,0,0.01193576388888889,0,0)" xlink:href="#ag"/><use transform="matrix(0.01193576388888889,0,0,0.01193576388888889,15.946180555555557,0)" xlink:href="#ah"/></g><path fill="#3a414a" d="M1175-1298H707V0H516v-1298H49v-158h1126v158" id="ai"/><g id="r"><use transform="matrix(0.01193576388888889,0,0,0.01193576388888889,0,0)" xlink:href="#ai"/><use transform="matrix(0.01193576388888889,0,0,0.01193576388888889,13.690321180555557,0)" xlink:href="#ab"/><use transform="matrix(0.01193576388888889,0,0,0.01193576388888889,21.484375,0)" xlink:href="#D"/><use transform="matrix(0.01193576388888889,0,0,0.01193576388888889,34.78081597222222,0)" xlink:href="#C"/><use transform="matrix(0.01193576388888889,0,0,0.01193576388888889,48.566623263888886,0)" xlink:href="#x"/><use transform="matrix(0.01193576388888889,0,0,0.01193576388888889,54.49869791666666,0)" xlink:href="#z"/><use transform="matrix(0.01193576388888889,0,0,0.01193576388888889,67.98611111111111,0)" xlink:href="#G"/></g><path fill="#3a414a" d="M538-131c121 0 232-49 232-156 0-50-20-88-56-117-73-60-334-92-420-143-92-55-162-110-162-238 0-190 192-317 400-317 223 0 414 129 413 338H759c0-108-110-186-227-186-119 0-215 53-215 159 0 45 18 78 53 101 76 52 331 90 416 139 98 57 169 115 169 251C955-92 760 20 538 20c-176 0-314-68-386-174-38-55-57-115-57-179h185c6 129 116 202 258 202" id="aj"/><g id="s"><use transform="matrix(0.01193576388888889,0,0,0.01193576388888889,0,0)" xlink:href="#ah"/><use transform="matrix(0.01193576388888889,0,0,0.01193576388888889,6.648220486111112,0)" xlink:href="#z"/><use transform="matrix(0.01193576388888889,0,0,0.01193576388888889,20.135633680555557,0)" xlink:href="#aj"/><use transform="matrix(0.01193576388888889,0,0,0.01193576388888889,32.73980034722223,0)" xlink:href="#x"/><use transform="matrix(0.01193576388888889,0,0,0.01193576388888889,38.67187500000001,0)" xlink:href="#G"/><use transform="matrix(0.01193576388888889,0,0,0.01193576388888889,52.386067708333336,0)" xlink:href="#F"/><use transform="matrix(0.01193576388888889,0,0,0.01193576388888889,65.84960937500001,0)" xlink:href="#A"/><use transform="matrix(0.01193576388888889,0,0,0.01193576388888889,73.83463541666669,0)" xlink:href="#aj"/></g><path fill="#3a414a" d="M491 20c-241-1-355-148-355-398v-704h185v699c0 164 67 246 200 246 141 0 235-53 282-158v-787h185V0H812l-4-107C736-22 630 20 491 20" id="ak"/><g id="t"><use transform="matrix(0.01193576388888889,0,0,0.01193576388888889,0,0)" xlink:href="#ag"/><use transform="matrix(0.01193576388888889,0,0,0.01193576388888889,15.946180555555557,0)" xlink:href="#ab"/><use transform="matrix(0.01193576388888889,0,0,0.01193576388888889,23.990885416666668,0)" xlink:href="#E"/><use transform="matrix(0.01193576388888889,0,0,0.01193576388888889,36.78602430555556,0)" xlink:href="#F"/><use transform="matrix(0.01193576388888889,0,0,0.01193576388888889,50.24956597222223,0)" xlink:href="#x"/><use transform="matrix(0.01193576388888889,0,0,0.01193576388888889,56.18164062500001,0)" xlink:href="#A"/><use transform="matrix(0.01193576388888889,0,0,0.01193576388888889,64.16666666666667,0)" xlink:href="#y"/><use transform="matrix(0.01193576388888889,0,0,0.01193576388888889,77.11697048611111,0)" xlink:href="#E"/><use transform="matrix(0.01193576388888889,0,0,0.01193576388888889,89.912109375,0)" xlink:href="#A"/><use transform="matrix(0.01193576388888889,0,0,0.01193576388888889,97.89713541666667,0)" xlink:href="#ak"/><use transform="matrix(0.01193576388888889,0,0,0.01193576388888889,111.37261284722223,0)" xlink:href="#ab"/><use transform="matrix(0.01193576388888889,0,0,0.01193576388888889,119.41731770833334,0)" xlink:href="#y"/></g><path fill="#3a414a" d="M1222-777c17 480-206 763-650 777H169v-1456h411c408 9 627 269 642 679zm-190 4c3-312-149-522-447-525H361v1141h202c308 0 473-209 469-531v-85" id="al"/><path fill="#3a414a" d="M1240-945c-141 0-250 95-250 227V0H804v-709c0-157-77-236-231-236-121 0-204 52-249 155V0H139v-1082h175l5 120c79-93 186-140 321-140 151 0 254 58 309 174 69-98 181-174 345-174 237 0 362 126 362 377V0h-185v-714c-2-159-67-231-231-231" id="am"/><g id="u"><use transform="matrix(0.01193576388888889,0,0,0.01193576388888889,0,0)" xlink:href="#al"/><use transform="matrix(0.01193576388888889,0,0,0.01193576388888889,16.02973090277778,0)" xlink:href="#x"/><use transform="matrix(0.01193576388888889,0,0,0.01193576388888889,21.961805555555557,0)" xlink:href="#D"/><use transform="matrix(0.01193576388888889,0,0,0.01193576388888889,35.25824652777778,0)" xlink:href="#G"/><use transform="matrix(0.01193576388888889,0,0,0.01193576388888889,48.972439236111114,0)" xlink:href="#ab"/><use transform="matrix(0.01193576388888889,0,0,0.01193576388888889,56.76649305555556,0)" xlink:href="#D"/><use transform="matrix(0.01193576388888889,0,0,0.01193576388888889,70.06293402777779,0)" xlink:href="#am"/></g></defs></g></svg>